<?xml version="1.0" encoding="UTF-8"?>
<!DOCTYPE svg PUBLIC "-//W3C//DTD SVG 1.1//EN" "http://www.w3.org/Graphics/SVG/1.1/DTD/svg11.dtd">
<!-- Creator: Designer Bilguun -->
<svg xmlns="http://www.w3.org/2000/svg" xml:space="preserve" width="240.64mm" height="115.941mm" version="1.1" style="shape-rendering:geometricPrecision; text-rendering:geometricPrecision; image-rendering:optimizeQuality; fill-rule:evenodd; clip-rule:evenodd"
viewBox="0 0 24309.03 11712.14"
 xmlns:xlink="http://www.w3.org/1999/xlink"
 xmlns:xodm="http://www.corel.com/coreldraw/odm/2003">
 <defs>
  <style type="text/css">
   <![CDATA[
    .str1 {stroke:white;stroke-width:101.02;stroke-linecap:round;stroke-linejoin:round;stroke-miterlimit:22.9256}
    .str0 {stroke:white;stroke-width:13.36;stroke-linecap:round;stroke-linejoin:round;stroke-miterlimit:22.9256}
    .fil0 {fill:#6F9C76;fill-rule:nonzero}
   ]]>
   path {stroke:white; stroke-width: 50; stroke-linecap:round; stroke-linejoin:round;}
   .baruun_bus { fill: #d1d5db }
   .hoid_bus { fill: #d1d5db }
   .hangai_bus { fill: #d1d5db }
   .tuv_bus { fill: #d1d5db }
   .gobi_bus { fill: #d1d5db }
   .zuun_bus { fill: #d1d5db }
   .ub_bus { fill: #d1d5db }
   #MN1 { fill: #d1d5db }
  </style>
 </defs>
 <g id="Layer_x0020_1">
  <metadata id="CorelCorpID_0Corel-Layer"/>
  <g id="_2675059207184">
   <path id="MN071" class="baruun_bus bayan_ulgii" d="M1709.33,2561.9 1728.04,2572.59 1768.13,2596.64 1776.15,2604.66 1781.49,2610 1786.84,2618.02 1805.55,2668.81 1826.93,2740.97 1834.95,2778.39 1834.95,2783.73 1834.95,2813.13 1837.63,2821.15 1840.31,2834.52 1842.98,2845.2 1893.77,2925.39 1904.45,2952.12 1917.82,3008.25 1920.49,3013.59 1925.84,3026.96 1931.18,3037.64 1933.86,3051.01 1939.2,3064.37 1944.55,3069.72 1952.57,3077.74 1971.28,3099.12 2112.93,3168.61 2193.12,3235.44 2201.14,3254.15 2206.49,3272.85 2203.81,3286.22 2203.81,3291.56 2203.81,3302.25 2206.49,3304.93 2209.16,3318.29 2222.53,3347.69 2225.21,3353.03 2227.88,3355.71 2249.27,3366.4 2292.03,3369.07 2366.86,3379.76 2385.57,3382.44 2390.92,3385.12 2396.26,3390.46 2398.94,3403.82 2401.61,3435.9 2401.61,3443.92 2401.61,3449.26 2398.94,3462.63 2398.94,3467.97 2398.94,3475.99 2398.94,3481.34 2401.61,3492.02 2406.96,3500.04 2455.07,3574.88 2460.42,3582.9 2468.44,3588.24 2471.11,3590.92 2487.16,3641.7 2532.59,3743.27 2543.28,3753.95 2561.99,3767.32 2618.12,3786.03 2628.8,3791.37 2634.15,3796.71 2639.49,3804.73 2655.53,3834.13 2679.59,3858.18 2687.61,3868.87 2690.28,3874.21 2700.97,3900.94 2727.7,3994.49 2730.38,4005.17 2733.05,4013.2 2733.05,4021.22 2730.38,4050.61 2730.38,4072 2692.96,4074.68 2618.13,4055.97 2540.61,4072.01 2313.42,4178.92 2233.24,4194.96 2230.56,4208.32 2233.24,4219.01 2238.58,4229.7 2246.6,4237.72 2300.06,4261.77 2313.42,4272.46 2324.11,4293.84 2350.84,4379.38 2353.52,4403.43 2350.84,4419.47 2321.45,4464.91 2310.76,4488.96 2310.76,4518.36 2313.44,4553.11 2321.46,4582.5 2337.5,4681.4 2340.17,4708.13 2342.85,4724.17 2348.2,4742.88 2361.56,4756.24 2398.98,4782.97 2409.66,4796.34 2433.72,4823.07 2441.74,4833.76 2449.76,4852.46 2479.16,4959.37 2540.62,5146.47 2562.01,5186.56 2578.05,5205.27 2594.09,5226.65 2607.46,5256.05 2658.24,5411.07 2663.58,5435.13 2663.58,5464.52 2663.58,5485.91 2658.24,5504.62 2652.9,5517.98 2647.55,5534.02 2650.23,5555.41 2668.94,5587.48 2773.18,5715.77 2821.29,5790.61 2818.62,5828.03 2783.87,5918.9 2778.52,5942.95 2775.85,5967.01 2775.85,5991.06 2783.87,6015.11 2799.91,6044.51 2834.66,6073.89 2856.04,6089.94 2885.44,6100.62 2946.91,6143.38 3024.42,6215.55 3077.88,6293.06 3139.35,6333.16 3139.35,6359.89 3134,6381.27 3115.3,6397.31 3101.93,6405.33 2992.35,6389.29 2898.8,6399.98 2885.44,6394.64 2864.05,6378.59 2848.01,6383.94 2839.99,6391.96 2829.3,6410.67 2815.94,6450.76 2802.57,6466.8 2783.87,6472.15 2759.81,6466.8 2735.76,6450.76 2717.05,6426.71 2687.66,6378.59 2671.61,6362.55 2647.56,6362.55 2626.18,6365.23 2602.12,6365.23 2554.01,6343.84 2500.55,6330.48 2500.55,6327.8 2495.21,6309.09 2481.84,6277.02 2471.15,6274.34 2449.77,6236.93 2447.09,6236.93 2441.75,6226.24 2433.73,6202.19 2423.04,6186.14 2433.73,6154.07 2431.05,6146.05 2423.03,6127.34 2406.99,6108.63 2404.31,6079.24 2388.27,6052.52 2377.58,6044.5 2369.56,6031.13 2353.52,6017.77 2337.48,6007.08 2321.44,6001.74 2302.73,6004.41 2286.69,5999.07 2241.25,5940.27 2225.21,5913.54 2203.82,5889.48 2185.11,5854.73 2174.42,5828.01 2158.38,5806.62 2155.71,5803.94 2102.25,5707.72 2091.56,5680.99 2083.54,5672.97 2070.17,5654.26 2070.17,5643.58 2080.86,5630.21 2083.54,5603.48 2094.23,5587.44 2080.86,5574.08 2067.5,5552.69 2051.45,5539.33 2051.45,5536.65 2054.13,5496.55 2064.82,5477.85 2062.14,5453.79 2062.14,5448.45 2035.41,5416.38 2016.7,5408.36 1979.29,5336.19 1973.94,5328.17 1965.92,5312.13 1971.27,5272.03 1976.61,5266.69 1973.93,5253.32 1957.89,5239.96 1941.85,5231.94 1920.46,5226.59 1915.12,5221.25 1904.43,5218.57 1888.39,5215.9 1869.68,5213.22 1834.93,5197.18 1802.86,5173.13 1776.13,5143.73 1765.44,5130.36 1760.1,5114.32 1762.78,5079.57 1773.46,5052.84 1757.42,5047.5 1760.1,5039.48 1757.42,5018.09 1746.73,5004.73 1714.66,5004.73 1685.26,4994.04 1671.9,5002.06 1666.56,5015.43 1666.56,5031.47 1663.88,5044.83 1653.19,5058.2 1629.14,5068.88 1548.95,5074.23 1524.9,5068.88 1516.88,5055.52 1508.86,5023.45 1506.18,5012.76 1506.18,5010.08 1503.5,5010.08 1479.45,4994.04 1474.11,4991.36 1471.43,4988.69 1460.74,4988.69 1452.72,4983.34 1444.7,4967.3 1436.68,4948.59 1431.34,4932.55 1420.65,4927.21 1407.28,4924.53 1396.6,4913.84 1391.25,4897.8 1391.25,4879.09 1391.25,4876.42 1407.29,4860.37 1391.25,4863.05 1388.57,4847.01 1367.19,4833.64 1337.79,4836.32 1316.41,4844.34 1278.99,4844.34 1265.63,4844.34 1236.23,4825.63 1225.54,4825.63 1209.5,4833.65 1172.08,4863.05 1158.72,4876.42 1142.68,4892.46 1121.29,4895.13 1083.87,4887.11 1014.38,4887.11 993,4879.09 993,4876.42 990.32,4876.42 982.3,4863.05 974.28,4847.01 955.57,4825.62 904.79,4761.48 894.1,4750.79 872.72,4745.45 829.95,4750.79 819.27,4750.79 813.92,4748.11 811.25,4750.79 787.19,4734.75 736.41,4681.29 715.03,4673.27 696.32,4675.94 682.95,4670.6 672.27,4662.58 669.59,4651.89 664.24,4641.2 637.51,4590.42 634.84,4566.37 629.49,4550.33 640.18,4531.62 648.2,4502.22 632.16,4491.54 629.48,4480.85 586.72,4430.07 584.05,4422.05 581.37,4424.72 562.66,4416.7 549.3,4419.38 533.25,4424.72 517.21,4422.05 493.16,4408.68 493.16,4406 490.48,4406 458.41,4360.57 450.39,4339.18 439.7,4331.16 412.97,4317.8 407.63,4317.8 391.59,4317.8 327.44,4309.77 311.4,4283.04 298.03,4269.68 260.62,4250.97 223.2,4242.95 188.45,4218.9 183.11,4210.88 175.08,4200.19 175.08,4184.15 196.47,4160.1 217.86,4144.05 217.86,4133.37 212.51,4125.35 241.91,4103.96 249.93,4093.27 247.25,4079.91 249.93,4077.23 247.25,4077.23 247.25,4063.87 225.87,4039.81 183.11,4010.42 167.06,4005.07 134.99,4007.75 126.97,4002.41 94.9,3962.31 78.85,3943.6 68.17,3935.58 62.82,3927.56 49.46,3916.87 46.78,3914.2 41.44,3906.18 33.42,3900.83 17.38,3892.81 6.69,3882.12 6.69,3866.08 12.03,3852.72 12.03,3850.04 14.71,3836.68 28.07,3815.29 78.85,3791.24 105.58,3767.19 105.58,3740.46 110.93,3735.11 105.58,3729.77 105.58,3724.43 94.9,3711.06 78.85,3705.72 76.18,3705.72 76.18,3668.3 81.52,3644.25 73.5,3628.21 76.18,3614.84 76.18,3588.11 65.49,3553.36 62.81,3537.32 78.85,3545.34 92.22,3545.34 169.73,3534.65 183.1,3526.63 196.46,3507.92 223.19,3481.19 284.66,3443.78 311.39,3417.05 314.07,3387.65 298.02,3352.9 290,3318.15 303.37,3283.4 311.39,3270.04 324.75,3232.62 332.77,3216.58 351.48,3203.21 487.8,3179.16 506.5,3179.16 541.25,3192.52 559.96,3192.52 608.08,3189.85 624.12,3184.5 653.52,3163.12 666.88,3160.44 680.25,3160.44 690.93,3171.13 712.32,3197.86 728.36,3213.9 744.4,3216.58 859.33,3224.6 862.01,3219.25 848.64,3181.84 848.64,3136.4 851.32,3120.36 856.66,3106.99 872.71,3101.65 888.75,3109.67 896.77,3123.03 902.11,3141.74 910.13,3160.45 918.15,3171.14 923.5,3184.5 928.84,3195.19 939.53,3203.21 968.92,3197.87 1078.51,3147.09 1105.24,3125.7 1121.28,3098.97 1110.59,3069.58 1091.88,3037.5 1099.9,3008.11 1121.29,2994.74 1148.02,3000.09 1190.78,3042.85 1212.17,3056.21 1238.9,3056.21 1257.6,3034.83 1273.65,3005.43 1289.69,2984.04 1316.42,2984.04 1351.17,2959.99 1423.33,2935.94 1471.45,2909.21 1487.49,2895.84 1495.51,2877.14 1487.49,2855.75 1474.13,2847.73 1439.38,2829.02 1431.36,2815.66 1431.36,2804.97 1442.04,2791.6 1442.04,2778.24 1439.37,2772.9 1426,2759.53 1420.66,2751.51 1420.66,2738.15 1426,2692.71 1428.68,2682.02 1436.7,2674 1460.75,2652.61 1500.85,2636.57 1610.43,2633.89 1653.19,2623.21 1690.61,2604.5 1709.32,2575.1 1709.32,2561.74z"/>
   <path id="MN046" class="baruun_bus uvs" d="M2730.33,4072.02 2730.33,4050.63 2733,4021.24 2733,4013.22 2730.33,4005.19 2727.65,3994.51 2700.92,3900.96 2690.23,3874.23 2687.56,3868.89 2679.53,3858.2 2655.48,3834.15 2639.44,3804.75 2634.1,3796.73 2628.75,3791.39 2618.07,3786.05 2561.94,3767.34 2543.23,3753.97 2532.54,3743.29 2487.11,3641.72 2471.06,3590.94 2468.39,3588.26 2460.37,3582.92 2455.02,3574.9 2406.91,3500.06 2401.56,3492.04 2398.89,3481.36 2398.89,3476.01 2398.89,3467.99 2398.89,3462.65 2401.56,3449.28 2401.56,3443.94 2401.56,3435.92 2398.89,3403.84 2396.21,3390.48 2390.87,3385.14 2385.52,3382.46 2366.81,3379.78 2291.98,3369.09 2249.22,3366.42 2227.83,3355.73 2225.16,3353.05 2222.48,3347.71 2209.11,3318.31 2206.44,3304.95 2203.76,3302.27 2203.76,3291.58 2203.76,3286.24 2206.44,3272.87 2201.09,3254.17 2193.07,3235.46 2112.88,3168.63 1971.23,3099.14 1952.52,3077.76 1944.5,3069.74 1939.15,3064.39 1933.81,3051.03 1931.13,3037.66 1925.79,3026.98 1920.44,3013.61 1917.77,3008.27 1904.4,2952.14 1893.72,2925.41 1842.93,2845.22 1840.26,2834.54 1837.58,2821.17 1834.9,2813.15 1834.9,2783.75 1834.9,2778.41 1826.88,2740.99 1805.5,2668.83 1786.79,2618.04 1781.44,2610.02 1776.1,2604.68 1768.08,2596.66 1727.98,2572.61 1709.28,2561.92 1711.95,2537.87 1717.3,2505.79 1727.98,2484.41 1752.04,2468.37 1850.93,2446.98 1880.33,2430.94 1971.21,2361.45 1987.25,2356.11 2019.32,2350.76 2032.69,2345.42 2070.1,2313.34 2104.85,2310.67 2169,2324.03 2201.07,2324.03 2217.11,2318.69 2227.8,2313.34 2241.17,2302.66 2251.85,2286.61 2254.53,2270.57 2254.53,2235.82 2262.55,2222.46 2289.28,2206.42 2348.08,2187.71 2374.81,2166.32 2428.27,2096.83 2449.66,2078.12 2476.39,2064.76 2564.59,2064.76 2591.32,2056.74 2663.48,2016.64 2692.88,2016.64 2757.03,2030.01 2781.08,2021.99 2794.44,2003.28 2799.79,1976.55 2807.81,1952.5 2826.52,1933.79 2904.03,1901.72 2922.74,1880.33 2960.15,1808.16 2981.54,1789.45 3035,1757.38 3091.12,1736 3147.25,1730.65 3270.2,1754.7 3342.36,1752.03 3406.51,1714.61 3446.61,1629.08 3446.61,1607.69 3446.61,1586.31 3451.95,1567.6 3462.64,1551.56 3476,1543.54 3494.71,1535.52 3513.42,1540.86 3524.11,1556.9 3540.15,1605.02 3558.86,1634.41 3582.91,1653.12 3612.31,1666.49 3641.7,1687.87 3684.46,1752.02 3713.86,1768.06 3729.9,1768.06 3748.61,1760.04 3764.65,1746.67 3778.02,1730.63 3786.04,1711.92 3791.38,1671.83 3796.72,1653.12 3823.45,1631.73 3871.57,1623.71 3919.68,1626.39 3949.08,1645.1 3959.77,1687.86 3959.77,1743.99 3973.13,1792.1 3981.15,1816.15 3986.5,1829.52 3997.18,1837.54 4010.55,1845.56 4058.66,1858.92 4082.72,1858.92 4120.13,1856.25 4296.54,1845.56 4384.74,1874.96 4649.35,1885.64 4913.95,1899.01 4930,1907.03 4940.68,1923.07 4943.36,1941.78 4946.04,1984.54 4975.43,2059.37 4980.78,2088.77 4986.12,2211.72 4994.14,2273.19 5002.16,2302.59 5012.85,2326.64 5028.89,2348.02 5093.04,2374.75 5106.4,2388.12 5111.75,2401.48 5114.42,2420.19 5119.77,2436.23 5127.79,2452.27 5159.86,2484.35 5167.88,2497.71 5181.25,2532.46 5189.27,2543.15 5205.31,2548.49 5226.7,2545.82 5298.86,2519.09 5429.83,2513.74 5453.88,2519.09 5475.27,2537.8 5491.31,2575.21 5504.68,2601.94 5510.02,2609.96 5547.44,2631.35 5758.59,2628.67 5790.66,2639.36 5825.41,2666.09 5838.77,2682.13 5849.46,2690.15 5836.1,2711.54 5838.77,2748.95 5849.46,2799.74 5854.81,2863.88 5854.81,2879.92 5852.13,2885.27 5849.45,2895.96 5836.09,2936.05 5830.74,2962.78 5830.74,2992.18 5838.76,3026.93 5857.47,3072.36 5865.49,3096.42 5876.18,3141.85 5881.52,3157.9 5894.89,3176.6 5916.27,3192.65 5961.71,3219.38 5980.42,3235.42 5993.79,3256.8 6004.47,3278.19 6009.82,3310.26 6007.14,3374.41 5942.99,3505.38 5934.97,3540.13 5934.97,3577.54 5940.32,3609.62 5945.66,3639.01 5940.32,3665.74 5929.63,3695.14 5924.29,3721.87 5921.61,3745.92 5921.61,3783.34 5921.61,3794.03 5910.92,3839.46 5884.19,3892.92 5860.14,3903.61 5798.67,3906.29 5763.92,3911.63 5705.12,3967.76 5651.66,3997.15 5560.78,4047.94 5461.89,4074.66 5333.59,4088.03 5264.1,4080.01 5258.76,4077.33 5224.01,4055.95 5202.62,4047.93 5111.75,4050.6 5079.67,4045.26 4863.18,3957.06 4831.11,3957.06 4518.4,4122.77 4499.69,4146.82 4464.94,4205.62 4438.21,4229.68 4408.81,4251.06 4368.72,4296.5 4323.28,4419.45 4253.79,4382.03 4237.75,4368.67 4189.63,4315.21 4170.93,4301.84 4168.25,4296.5 4162.9,4288.48 4160.23,4283.14 4157.55,4269.77 4152.21,4240.37 4146.86,4210.98 4146.86,4205.63 4144.19,4197.61 4141.51,4192.27 4136.16,4184.25 4122.8,4168.21 4061.33,4136.13 4050.64,4128.11 4047.97,4125.44 4042.62,4120.09 4034.6,4117.42 3997.18,4109.39 3973.13,4112.07 3943.74,4122.76 3906.32,4152.16 3874.25,4189.57 3839.49,4218.97 3802.08,4235.01 3719.22,4213.63 3443.93,4146.8 3433.24,4152.15 3398.49,4178.88 3379.78,4181.55 3366.42,4170.86 3350.38,4138.79 3323.65,4061.28 3307.6,4029.21 3286.22,4005.15 3267.51,4002.48 3254.15,4005.15 3235.44,4013.18 3222.07,4013.18 3206.03,4002.49 3155.25,3804.7 3147.23,3786 3133.86,3772.63 3115.15,3759.27 3088.43,3753.92 3061.7,3759.27 3026.95,3772.63 2952.11,3818.07 2928.06,3842.12 2879.94,3922.31 2807.78,4021.21 2765.02,4058.62 2730.27,4071.99z"/>
   <path id="MN043" class="baruun_bus hovd" d="M2500.47,6330.5 2553.93,6343.86 2602.04,6365.25 2626.1,6365.25 2647.48,6362.57 2671.53,6362.57 2687.58,6378.61 2716.97,6426.73 2735.68,6450.78 2759.73,6466.82 2783.79,6472.17 2802.49,6466.82 2815.86,6450.78 2829.22,6410.69 2839.91,6391.98 2847.93,6383.96 2863.97,6378.61 2885.36,6394.66 2898.72,6400 2992.27,6389.31 3101.85,6405.35 3115.22,6397.33 3133.92,6381.29 3139.27,6359.91 3139.27,6333.18 3077.8,6293.08 3024.34,6215.57 2946.83,6143.4 2885.36,6100.64 2855.96,6089.96 2834.58,6073.91 2799.83,6044.53 2783.79,6015.13 2775.76,5991.08 2775.76,5967.03 2778.44,5942.97 2783.79,5918.92 2818.54,5828.05 2821.21,5790.63 2773.1,5715.79 2668.86,5587.5 2650.15,5555.43 2647.47,5534.04 2652.82,5518 2658.16,5504.64 2663.5,5485.93 2663.5,5464.54 2663.5,5435.15 2658.16,5411.09 2607.38,5256.07 2594.01,5226.67 2577.97,5205.29 2561.93,5186.58 2540.54,5146.49 2479.07,4959.39 2449.68,4852.48 2441.66,4833.78 2433.64,4823.09 2409.58,4796.36 2398.9,4782.99 2361.48,4756.26 2348.11,4742.9 2342.77,4724.19 2340.09,4708.15 2337.42,4681.42 2321.38,4582.52 2313.35,4553.13 2310.68,4518.38 2310.68,4488.98 2321.36,4464.93 2350.76,4419.49 2353.44,4403.45 2350.76,4379.4 2324.03,4293.86 2313.34,4272.48 2299.98,4261.79 2246.52,4237.74 2238.5,4229.72 2233.16,4219.03 2230.48,4208.34 2233.16,4194.98 2313.34,4178.94 2540.53,4072.03 2618.04,4055.99 2692.88,4074.7 2730.3,4072.02 2765.05,4058.65 2807.81,4021.24 2879.97,3922.34 2928.09,3842.15 2952.14,3818.1 3026.98,3772.66 3061.73,3759.3 3088.46,3753.95 3115.19,3759.3 3133.89,3772.66 3147.26,3786.03 3155.28,3804.73 3206.06,4002.52 3222.1,4013.21 3235.47,4013.21 3254.18,4005.18 3267.54,4002.51 3286.25,4005.18 3307.63,4029.24 3323.68,4061.31 3350.41,4138.82 3366.45,4170.89 3379.81,4181.58 3398.52,4178.91 3433.27,4152.18 3443.96,4146.83 3719.25,4213.66 3802.11,4235.04 3839.53,4219 3874.28,4189.6 3906.35,4152.19 3943.77,4122.79 3973.16,4112.1 3997.21,4109.43 4034.63,4117.45 4042.65,4120.12 4048,4125.47 4050.67,4128.14 4061.36,4136.16 4122.83,4168.24 4136.2,4184.28 4141.54,4192.3 4144.22,4197.64 4146.89,4205.67 4146.89,4211.01 4152.24,4240.41 4157.58,4269.8 4160.26,4283.17 4162.93,4288.51 4168.28,4296.53 4170.96,4301.87 4189.66,4315.24 4237.78,4368.7 4253.82,4382.06 4323.31,4419.48 4347.36,4438.19 4355.38,4446.21 4358.06,4451.55 4358.06,4459.57 4358.06,4464.92 4355.38,4467.59 4352.71,4470.27 4352.71,4475.62 4347.36,4486.3 4347.36,4494.32 4347.36,4505.01 4347.36,4526.4 4344.69,4537.09 4342.01,4545.11 4331.32,4569.16 4307.27,4603.91 4216.39,4700.13 4176.3,4734.88 4122.84,4769.63 4154.91,4873.87 4170.96,4916.63 4178.98,4956.72 4181.65,4988.8 4181.65,5018.19 4189.67,5039.58 4280.55,5165.2 4347.37,5285.47 4350.05,5344.27 4352.73,5362.98 4355.4,5384.36 4387.48,5427.13 4443.6,5480.58 4601.29,5624.92 4708.2,5694.41 4758.98,5718.46 4769.67,5737.17 4775.01,5758.56 4772.34,5787.95 4772.34,5820.02 4783.02,5860.12 4796.39,5902.88 4839.15,5980.39 4908.64,6081.94 4935.37,6138.07 4932.69,6178.16 4927.35,6199.55 4905.96,6228.95 4873.89,6253 4721.54,6322.49 4652.05,6365.25 4569.2,6445.44 4529.1,6458.8 4505.05,6464.15 4427.54,6456.13 4408.83,6450.78 4392.79,6450.78 4382.1,6461.47 4384.78,6482.85 4392.8,6504.24 4440.92,6597.78 4451.6,6632.53 4456.95,6669.95 4454.27,6704.7 4443.58,6734.1 4355.38,6889.12 4283.22,7073.54 4280.54,7092.25 4288.56,7148.37 4288.56,7167.08 4277.87,7185.79 4259.16,7199.15 4248.48,7212.52 4221.75,7273.99 4205.71,7295.37 4187,7311.42 4101.47,7364.87 4082.76,7383.58 4066.71,7407.63 4061.37,7445.05 4080.08,7682.93 4077.4,7811.22 4037.31,8153.34 4037.31,8158.68 4018.6,8158.68 4002.56,8156.01 3989.19,8153.33 3973.15,8153.33 3965.13,8156.01 3927.71,8142.64 3906.33,8142.64 3874.26,8123.93 3863.57,8121.26 3839.52,8126.6 3826.15,8126.6 3791.4,8121.26 3705.87,8145.31 3655.09,8147.99 3582.92,8166.69 3569.55,8164.02 3534.8,8150.65 3521.44,8147.98 3486.69,8156 3465.3,8147.98 3459.96,8150.65 3438.57,8142.63 3425.21,8142.63 3387.79,8153.32 3379.77,8150.64 3369.08,8139.96 3334.33,8102.54 3296.92,8097.19 3280.88,8089.17 3256.82,8083.83 3230.09,8081.15 3203.36,8083.83 3163.27,8091.85 3032.3,8086.51 3016.26,8086.51 2984.18,8097.19 2968.14,8099.87 2893.31,8081.16 2885.29,8083.84 2877.27,8086.52 2874.59,8086.52 2858.55,8070.48 2839.84,8043.75 2815.79,8019.69 2813.11,8017.02 2799.75,8006.33 2783.7,8006.33 2770.34,8017.02 2756.98,8030.38 2746.29,8041.07 2722.23,8027.7 2695.51,8027.7 2663.43,8022.36 2650.07,8022.36 2607.31,7998.31 2596.62,7990.29 2596.62,7968.9 2575.23,7955.54 2569.89,7950.19 2543.16,7936.83 2511.09,7931.48 2476.34,7928.81 2449.61,7934.15 2396.15,7963.55 2372.1,7963.55 2369.42,7955.53 2390.8,7926.13 2377.44,7875.35 2334.68,7851.3 2326.66,7824.57 2318.64,7776.45 2294.59,7728.34 2297.26,7722.99 2275.88,7698.94 2270.53,7693.6 2259.84,7682.91 2243.8,7661.52 2238.46,7658.85 2219.75,7621.43 2230.44,7501.16 2265.19,7375.54 2374.77,7183.1 2460.31,7102.91 2462.98,7092.23 2487.03,7041.44 2489.71,6993.33 2489.71,6990.65 2489.71,6987.98 2468.33,6931.85 2446.94,6905.12 2444.26,6881.07 2441.59,6873.05 2428.22,6846.32 2414.86,6814.24 2412.18,6806.22 2390.79,6768.81 2409.5,6731.39 2438.9,6712.68 2457.61,6643.19 2476.32,6619.14 2478.99,6579.04 2495.04,6565.68 2511.08,6501.53 2513.75,6498.86 2513.75,6488.17 2508.41,6472.13 2503.07,6469.45 2503.07,6466.77 2492.38,6450.73 2476.34,6445.39 2500.39,6333.13 2500.39,6330.45z"/>
   <path id="MN041" class="hoid_bus huvsgul" d="M11245.77,2096.84 11243.09,2096.84 11202.99,2120.89 11154.88,2147.62 11122.81,2179.7 11093.41,2211.77 11085.39,2222.46 11077.37,2249.19 11072.03,2262.55 11064,2310.67 11047.96,2348.08 11042.62,2358.77 11015.89,2388.17 10999.85,2401.53 10983.81,2417.57 10965.1,2436.28 10943.71,2465.68 10941.03,2481.72 10908.96,2527.16 10876.89,2561.91 10860.85,2588.64 10855.5,2610.02 10855.5,2628.73 10858.18,2647.44 10860.86,2658.13 10868.88,2668.82 10882.24,2679.5 10922.34,2703.56 10983.81,2730.29 11047.95,2751.67 11144.17,2797.11 11197.63,2813.15 11259.1,2842.55 11320.57,2877.3 11341.96,2898.68 11368.68,2928.08 11307.22,2976.19 11283.16,2989.56 11272.48,2992.24 11256.43,2992.24 11213.67,2984.22 11200.31,2984.22 11184.27,2986.89 11168.22,2997.58 11162.88,3002.92 11154.86,3016.29 11130.81,3085.78 11109.42,3128.54 11101.4,3141.9 11072,3176.65 11037.25,3206.05 11023.89,3214.07 10989.14,3230.11 10927.67,3251.5 10895.6,3254.18 10860.85,3267.54 10804.72,3280.91 10759.28,3299.61 10743.24,3310.3 10729.88,3323.67 10700.48,3358.42 10665.73,3385.15 10660.39,3401.19 10649.7,3419.9 10630.99,3441.28 10612.28,3451.97 10601.59,3454.65 10569.52,3459.99 10542.79,3489.39 10532.1,3508.09 10505.37,3580.26 10500.03,3598.97 10500.03,3617.68 10500.03,3647.08 10513.4,3721.91 10516.07,3729.93 10361.05,3762 10278.19,3756.66 10254.14,3743.3 10077.73,3615 9845.2,3489.39 9823.82,3478.7 9805.11,3481.38 9797.09,3492.06 9791.74,3497.41 9789.07,3502.75 9786.39,3508.09 9786.39,3513.44 9783.71,3537.49 9781.03,3545.51 9770.35,3561.55 9759.66,3577.6 9730.26,3598.98 9716.9,3612.35 9716.9,3620.37 9716.9,3631.05 9711.55,3639.07 9623.36,3660.46 9607.31,3660.46 9593.95,3644.42 9583.26,3655.11 9580.58,3668.47 9577.91,3684.51 9575.23,3689.86 9577.91,3703.22 9583.25,3711.24 9591.27,3716.59 9682.15,3767.37 9698.19,3788.75 9698.19,3794.1 9698.19,3799.44 9690.17,3810.13 9687.49,3818.15 9668.78,3831.51 9663.44,3834.19 9658.1,3836.87 9655.42,3836.87 9644.73,3839.55 9636.71,3844.89 9604.64,3866.27 9593.95,3871.62 9577.91,3879.64 9577.91,3884.98 9577.91,3890.33 9580.58,3895.67 9580.58,3903.69 9575.24,3909.04 9567.22,3922.4 9551.18,3935.77 9540.49,3954.47 9535.15,3965.16 9537.82,3970.51 9548.51,3975.85 9551.19,3978.53 9553.86,3983.87 9548.52,3989.21 9535.16,4002.58 9532.48,4007.92 9529.8,4013.27 9532.48,4018.61 9535.16,4023.95 9535.16,4034.64 9527.14,4045.33 9521.79,4066.71 9516.45,4080.08 9516.45,4093.44 9516.45,4101.47 9524.47,4120.17 9524.47,4133.54 9527.15,4149.58 9532.49,4160.27 9540.51,4176.31 9545.85,4184.33 9548.53,4189.67 9553.87,4192.35 9561.9,4195.03 9577.94,4197.7 9583.28,4200.38 9585.96,4203.06 9593.98,4211.08 9610.02,4235.13 9577.95,4261.86 9511.12,4283.25 9441.63,4296.61 9420.25,4309.98 9412.23,4331.36 9417.57,4355.41 9417.57,4376.8 9409.55,4403.53 9385.5,4414.22 9358.77,4419.56 9334.72,4414.22 9316.01,4406.2 9201.08,4339.37 9174.35,4326.01 9102.18,4323.33 9086.14,4328.67 9070.1,4342.04 9062.08,4358.08 9054.06,4382.13 9046.04,4475.68 9035.35,4499.73 9024.66,4513.09 9011.3,4515.77 8842.91,4531.81 8824.2,4526.47 8808.16,4521.12 8792.12,4510.44 8776.08,4505.09 8768.06,4507.77 8757.37,4518.46 8746.68,4534.5 8733.32,4553.21 8711.93,4569.25 8690.54,4574.59 8671.84,4571.92 8647.78,4558.55 8583.64,4486.38 8578.29,4411.55 8532.86,4248.51 8524.83,4208.41 8522.16,4173.66 8524.83,4149.61 8527.51,4130.9 8532.86,4114.86 8586.31,4026.66 8599.68,3997.26 8613.04,3962.51 8626.41,3911.73 8626.41,3895.69 8621.06,3874.31 8602.36,3815.5 8591.67,3746.01 8575.63,3607.03 8570.28,3580.3 8564.94,3564.26 8551.57,3550.9 8316.37,3574.95 8278.96,3655.14 8238.86,3711.26 8196.1,3740.66 8177.39,3746 8148,3748.68 8131.95,3743.34 8115.91,3735.31 8081.16,3708.59 8054.43,3692.54 8000.97,3673.84 7896.73,3660.47 7821.9,3665.81 7800.51,3671.16 7776.46,3681.85 7728.35,3697.89 7693.6,3695.21 7674.89,3687.19 7445.03,3516.14 7402.27,3497.43 7324.76,3494.75 7180.43,3484.06 7118.96,3468.02 7081.54,3443.97 6923.85,3294.29 6905.14,3267.56 6891.78,3224.8 6891.78,3206.09 6891.78,3176.7 6899.8,3141.94 6905.14,3123.24 6915.83,3096.51 6926.52,3080.47 6961.27,3035.03 7022.74,2978.9 7089.56,2933.46 7105.6,2914.76 7113.62,2901.39 7108.28,2888.03 7081.55,2847.93 7076.2,2834.57 7070.86,2823.88 7068.18,2810.51 7065.51,2799.83 7065.51,2794.48 7076.19,2799.83 7089.56,2807.85 7097.58,2829.23 7116.29,2858.63 7153.71,2877.34 7199.14,2888.03 7228.54,2888.03 7260.61,2877.34 7295.36,2861.3 7359.51,2813.18 7410.29,2775.76 7434.34,2746.37 7439.69,2708.95 7431.67,2687.57 7426.32,2674.2 7429,2663.51 7485.13,2650.15 7554.62,2615.4 7570.66,2612.72 7586.7,2618.07 7613.43,2647.46 7626.79,2655.48 7640.16,2647.46 7661.54,2620.73 7685.6,2599.35 7792.5,2540.54 7835.26,2492.43 7952.87,2233.17 7958.21,2214.46 7960.89,2190.41 7958.21,2171.7 7952.87,2134.28 7955.55,2094.19 7979.6,2022.02 7982.28,1984.6 7976.93,1955.2 7963.57,1931.15 7944.86,1915.11 7926.15,1907.09 7878.04,1899.07 7859.33,1891.05 7800.52,1845.61 7784.48,1829.57 7773.8,1808.18 7736.38,1709.29 7712.33,1647.82 7715,1623.76 7747.08,1575.65 7744.4,1562.28 7720.35,1543.58 7709.66,1530.21 7701.64,1514.17 7693.62,1500.81 7658.87,1479.42 7632.14,1450.02 7610.75,1415.27 7608.08,1377.86 7656.19,1273.62 7669.55,1233.52 7674.9,1193.43 7680.24,1177.39 7701.63,1121.26 7704.3,1102.55 7701.63,1075.82 7690.94,1035.73 7690.94,1017.02 7696.28,995.63 7704.3,979.59 7725.69,950.2 7736.38,934.15 7771.13,853.97 7784.49,827.24 7795.18,816.55 7805.87,813.87 7840.62,795.16 7859.33,792.49 7920.8,805.85 7928.82,784.47 7931.49,755.07 7926.15,701.61 7928.83,674.88 7936.85,653.5 7955.56,610.74 7960.9,586.68 8006.34,509.17 8075.83,477.1 8222.83,434.34 8246.88,412.95 8270.94,386.22 8292.32,354.15 8343.1,249.91 8353.79,193.78 8359.13,175.07 8388.53,134.98 8393.87,116.27 8396.55,97.56 8396.55,54.8 8401.9,33.42 8425.95,6.69 8455.34,6.69 8463.36,12.03 8482.07,28.07 8492.76,65.49 8506.13,94.89 8530.18,110.93 8661.15,156.37 8687.88,172.41 8703.92,193.79 8717.28,215.18 8733.33,233.89 8754.71,247.25 8931.12,298.03 9024.66,300.71 9046.05,311.4 9102.17,364.86 9152.95,423.66 9203.74,471.77 9270.56,493.16 9340.05,485.14 9425.58,501.18 9652.77,498.5 9698.21,525.23 9748.99,541.28 10075.07,709.66 10109.82,741.74 10141.89,749.76 10173.96,749.76 10203.36,757.78 10232.76,784.51 10259.49,819.26 10286.22,835.3 10315.61,835.3 10385.1,808.57 10419.85,805.89 10451.93,811.24 10508.05,835.29 10548.15,832.61 10569.53,835.29 10582.9,843.31 10622.99,872.71 10641.7,880.73 10703.17,875.38 10716.53,880.73 10743.26,904.78 10756.63,912.8 10815.43,915.48 10834.14,926.16 10844.83,939.53 10916.99,987.64 10922.34,1009.03 10911.65,1033.08 10879.58,1089.21 10876.9,1102.57 10882.24,1113.26 10887.59,1134.65 10890.26,1156.03 10890.26,1177.42 10884.92,1217.51 10887.6,1262.95 10900.96,1311.06 10922.35,1353.82 10943.73,1388.57 10951.75,1404.62 10951.75,1420.66 10946.41,1439.37 10938.39,1452.73 10957.1,1484.8 10951.75,1516.88 10938.39,1551.63 10930.37,1583.7 10941.06,1621.12 10962.44,1645.17 11010.56,1679.92 11026.6,1714.67 11018.58,1741.4 10999.87,1768.13 10986.5,1797.53 10981.16,1832.28 10989.18,1867.03 11005.22,1899.1 11023.93,1923.15 11058.68,1936.52 11133.51,1947.2 11165.59,1971.26 11219.05,2075.5 11243.1,2094.21 11245.78,2096.88z"/>
   <path id="MN057" class="hoid_bus zavhan" d="M4347.35,5285.46 4280.53,5165.19 4189.65,5039.57 4181.63,5018.18 4181.63,4988.79 4178.96,4956.71 4170.94,4916.62 4154.89,4873.86 4122.82,4769.62 4176.28,4734.87 4216.37,4700.12 4307.25,4603.9 4331.3,4569.15 4341.99,4545.1 4344.67,4537.08 4347.34,4526.39 4347.34,4505 4347.34,4494.31 4347.34,4486.29 4352.69,4475.61 4352.69,4470.26 4355.36,4467.58 4358.04,4464.91 4358.04,4459.56 4358.04,4451.54 4355.36,4446.2 4347.34,4438.18 4323.29,4419.47 4368.73,4296.52 4408.82,4251.08 4438.22,4229.7 4464.95,4205.64 4499.7,4146.84 4518.41,4122.79 4831.12,3957.08 4863.19,3957.08 5079.68,4045.28 5111.76,4050.62 5202.63,4047.95 5224.02,4055.97 5258.77,4077.35 5264.11,4080.03 5333.6,4088.05 5461.9,4074.69 5560.79,4047.96 5651.67,3997.17 5705.13,3967.78 5763.93,3911.65 5798.68,3906.31 5860.15,3903.63 5884.2,3892.94 5910.93,3839.48 5921.62,3794.05 5921.62,3783.36 5921.62,3745.94 5924.3,3721.89 5929.64,3695.16 5940.33,3665.76 5945.67,3639.03 5940.33,3609.64 5934.98,3577.57 5934.98,3540.15 5943,3505.4 6007.15,3374.43 6009.83,3310.28 6004.48,3278.21 5993.8,3256.82 5980.43,3235.44 5961.72,3219.4 5916.28,3192.67 5894.9,3176.62 5881.53,3157.92 5876.19,3141.87 5865.5,3096.44 5857.48,3072.38 5838.77,3026.95 5830.75,2992.2 5830.75,2962.8 5836.1,2936.07 5849.46,2895.98 5852.14,2885.29 5854.82,2879.94 5854.82,2863.9 5849.47,2799.76 5838.78,2748.97 5836.11,2711.56 5849.47,2690.17 5852.15,2692.85 5868.19,2700.87 5881.55,2695.53 5894.92,2682.16 5913.63,2652.76 5929.67,2642.08 6004.5,2631.39 6033.9,2615.35 6063.29,2575.25 6084.67,2553.87 6114.07,2543.18 6143.46,2548.52 6162.17,2575.25 6172.86,2607.33 6186.23,2631.38 6204.93,2639.4 6226.32,2623.36 6234.34,2607.32 6242.36,2593.95 6253.05,2583.26 6263.74,2575.24 6274.42,2569.9 6287.79,2567.22 6298.48,2569.9 6309.16,2575.24 6421.43,2626.03 6456.18,2652.75 6488.25,2687.5 6506.96,2698.19 6525.67,2700.87 6547.05,2692.85 6584.47,2668.8 6603.18,2658.11 6624.56,2658.11 6640.6,2666.13 6651.29,2682.17 6661.98,2708.9 6672.67,2727.61 6686.03,2732.95 6702.07,2727.61 6718.12,2714.24 6758.21,2671.48 6774.25,2668.81 6977.38,2700.88 7004.11,2724.93 7030.84,2773.05 7044.2,2786.41 7065.59,2794.43 7065.59,2799.78 7068.26,2810.46 7070.94,2823.83 7076.29,2834.52 7081.63,2847.88 7108.36,2887.98 7113.7,2901.34 7105.68,2914.7 7089.64,2933.41 7022.82,2978.85 6961.35,3034.98 6926.6,3080.41 6915.91,3096.46 6905.22,3123.19 6899.88,3141.89 6891.86,3176.64 6891.86,3206.04 6891.86,3224.75 6905.22,3267.51 6923.93,3294.24 7081.62,3443.92 7119.04,3467.97 7180.51,3484.01 7324.84,3494.7 7402.35,3497.38 7445.11,3516.09 7674.97,3687.14 7693.68,3695.16 7728.43,3697.84 7776.54,3681.8 7800.6,3671.11 7821.98,3665.76 7896.81,3660.42 8001.06,3673.78 8054.51,3692.49 8081.24,3708.54 8115.99,3735.26 8132.04,3743.29 8148.08,3748.63 8177.47,3745.95 8196.18,3740.61 8238.94,3711.21 8279.04,3655.09 8316.45,3574.9 8551.65,3550.85 8565.02,3564.21 8570.36,3580.25 8575.71,3606.98 8591.75,3745.96 8602.44,3815.45 8621.14,3874.26 8626.49,3895.64 8626.49,3911.68 8613.12,3962.46 8599.76,3997.21 8586.39,4026.61 8532.94,4114.81 8527.59,4130.85 8524.92,4149.56 8522.24,4173.61 8524.92,4208.36 8532.94,4248.46 8578.37,4411.5 8583.72,4486.33 8348.52,4595.92 8305.76,4601.26 8281.7,4611.95 8260.32,4636 8233.59,4689.46 8212.2,4716.19 8180.13,4737.58 8121.33,4756.28 7960.96,4758.96 7939.58,4766.98 7920.87,4777.67 7907.5,4793.71 7896.81,4807.08 7878.11,4865.88 7883.45,4895.28 7910.18,4962.1 7920.87,5002.19 7923.54,5031.59 7918.2,5055.64 7886.13,5162.55 7883.45,5189.28 7886.13,5210.66 7894.15,5229.37 7918.2,5242.74 7939.59,5250.76 8051.85,5264.12 8054.52,5272.14 8054.52,5280.16 8054.52,5293.53 8049.18,5322.93 8043.84,5344.31 8035.82,5365.7 8022.45,5392.43 8001.07,5429.84 7966.32,5467.26 7955.63,5483.3 7955.63,5510.03 7960.97,5531.42 7966.32,5552.8 7955.63,5584.87 7934.24,5630.31 7872.77,5723.86 7827.33,5742.56 7781.9,5753.25 7709.73,5755.93 7683,5758.61 7661.61,5771.97 7648.25,5793.36 7642.91,5825.43 7640.23,5860.18 7634.89,5892.25 7517.28,6258.41 7485.21,6338.6 7479.86,6362.65 7482.54,6424.12 7421.07,6408.08 7367.61,6373.33 7330.19,6349.28 7298.12,6349.28 7284.76,6351.96 7279.41,6354.63 7276.74,6359.98 7266.05,6378.69 7258.03,6386.71 7217.93,6424.12 7193.88,6440.16 7180.52,6442.84 7161.81,6445.52 7151.12,6445.52 7143.1,6442.84 7127.06,6432.15 7113.69,6426.81 7108.35,6426.81 7028.16,6424.13 6990.74,6418.79 6985.4,6408.1 6982.72,6392.06 6985.4,6354.64 6977.38,6335.93 6923.92,6277.13 6902.53,6239.71 6889.17,6204.96 6883.83,6175.57 6875.81,6106.08 6811.66,6074 6784.93,6057.97 6758.2,6052.63 6563.08,6114.09 6536.35,6114.09 6528.33,6047.28 6517.65,6023.22 6501.6,5977.78 6485.56,5900.27 6469.52,5870.88 6426.76,5814.75 6408.05,5774.66 6392.01,5718.53 6381.32,5702.49 6365.28,5683.78 6338.55,5670.42 6327.86,5667.74 6306.48,5657.05 6031.19,5480.64 5980.41,5443.23 5934.97,5397.79 5926.95,5395.11 5902.9,5387.09 5876.17,5373.73 5844.1,5349.67 5651.66,5338.99 5630.27,5347.01 5598.2,5365.72 5571.47,5363.04 5558.11,5349.67 5550.08,5341.65 5542.06,5328.29 5531.38,5306.9 5518.01,5285.52 5501.97,5261.47 5488.6,5245.42 5464.55,5234.74 5400.41,5213.35 5379.02,5216.03 5354.97,5213.35 5346.95,5216.03 5320.22,5226.72 5306.85,5229.39 5218.65,5232.07 5119.76,5221.38 5031.56,5191.99 4978.1,5183.96 4970.08,5181.29 4959.39,5175.94 4935.34,5154.56 4916.63,5141.19 4884.56,5127.83 4844.46,5119.81 4817.73,5119.81 4796.35,5125.15 4724.18,5173.27 4625.28,5226.73 4531.74,5264.14 4347.32,5285.53z"/>
   <path id="MN073" class="hoid_bus arhangai" d="M10219.42,6188.84 10173.98,6140.73 10155.28,6132.71 10061.73,6154.09 10026.98,6156.77 9944.13,6143.4 9917.4,6143.4 9861.27,6162.11 9805.15,6164.79 9789.11,6154.1 9778.42,6138.06 9767.73,6114.01 9751.69,6063.23 9738.32,6041.85 9714.27,6020.46 9690.22,6012.44 9650.13,6001.76 9642.1,5996.41 9636.76,5985.72 9626.07,5945.63 9615.38,5918.9 9596.68,5889.51 9585.99,5862.78 9577.97,5793.29 9569.95,5782.6 9553.91,5779.92 9529.85,5785.26 9265.25,5865.45 9198.42,5881.49 9182.38,5881.49 9169.02,5870.81 9161,5852.1 9155.65,5825.37 9155.65,5803.98 9158.33,5782.6 9155.65,5766.56 9152.97,5750.51 9144.95,5729.13 9136.93,5710.42 9134.26,5678.35 9134.26,5651.62 9139.6,5595.49 9142.28,5566.1 9139.6,5539.37 9128.91,5509.97 9110.2,5483.24 9054.08,5437.8 9032.69,5416.42 9019.33,5397.71 9008.64,5370.98 9003.3,5336.23 9003.3,5248.03 8984.59,5250.71 8931.13,5282.78 8912.42,5301.49 8899.06,5320.2 8885.69,5330.89 8869.65,5341.57 8821.53,5349.59 8802.83,5354.94 8786.78,5365.63 8749.37,5416.41 8733.33,5427.09 8719.96,5435.12 8698.58,5443.14 8634.43,5453.82 8543.55,5456.5 8519.5,5456.5 8500.79,5448.48 8367.16,5360.28 8353.79,5344.24 8343.1,5322.85 8343.1,5250.69 8324.39,5202.57 8313.71,5191.88 8305.69,5181.2 8292.32,5175.85 8278.96,5170.51 8265.59,5167.83 8204.12,5175.85 8129.29,5199.91 8099.89,5218.61 8051.78,5264.05 7939.52,5250.69 7918.13,5242.67 7894.08,5229.3 7886.06,5210.59 7883.38,5189.21 7886.06,5162.48 7918.13,5055.57 7923.47,5031.52 7920.8,5002.12 7910.11,4962.03 7883.38,4895.2 7878.04,4865.81 7896.74,4807.01 7907.43,4793.64 7920.8,4777.6 7939.51,4766.91 7960.89,4758.89 8121.26,4756.21 8180.06,4737.51 8212.13,4716.12 8233.52,4689.39 8260.25,4635.93 8281.63,4611.88 8305.69,4601.19 8348.45,4595.85 8583.65,4486.26 8647.79,4558.43 8671.85,4571.8 8690.55,4574.47 8711.94,4569.13 8733.33,4553.09 8746.69,4534.38 8757.38,4518.34 8768.07,4507.65 8776.09,4504.97 8792.13,4510.32 8808.17,4521 8824.21,4526.35 8842.92,4531.69 9011.31,4515.65 9024.67,4512.97 9035.36,4499.61 9046.05,4475.56 9054.07,4382.01 9062.09,4357.96 9070.11,4341.92 9086.15,4328.55 9102.19,4323.21 9174.36,4325.89 9201.09,4339.25 9316.02,4406.07 9334.73,4414.1 9358.78,4419.44 9385.51,4414.1 9409.56,4403.41 9417.58,4376.68 9417.58,4355.29 9412.24,4331.24 9420.26,4309.86 9441.64,4296.49 9511.13,4283.13 9577.96,4261.74 9610.03,4235.01 9593.99,4210.96 9585.97,4202.94 9583.29,4200.26 9577.95,4197.58 9561.91,4194.91 9553.89,4192.23 9548.54,4189.55 9545.86,4184.21 9540.52,4176.19 9532.5,4160.15 9527.16,4149.46 9524.48,4133.42 9524.48,4120.05 9516.46,4101.34 9516.46,4093.32 9516.46,4079.96 9521.8,4066.59 9527.15,4045.21 9535.17,4034.52 9535.17,4023.83 9532.49,4018.49 9529.81,4013.14 9532.49,4007.8 9535.17,4002.46 9548.53,3989.09 9553.87,3983.75 9551.2,3978.4 9548.52,3975.73 9537.83,3970.38 9535.16,3965.04 9540.5,3954.35 9551.19,3935.64 9567.23,3922.28 9575.25,3908.91 9580.59,3903.57 9580.59,3895.55 9577.92,3890.21 9577.92,3884.86 9577.92,3879.52 9593.96,3871.5 9604.65,3866.15 9636.72,3844.77 9644.74,3839.42 9655.43,3836.75 9658.11,3836.75 9663.45,3834.07 9668.79,3831.39 9687.5,3818.03 9690.18,3810.01 9698.2,3799.32 9698.2,3793.98 9698.2,3788.63 9682.16,3767.25 9591.28,3716.46 9583.26,3711.12 9577.92,3703.1 9575.24,3689.74 9577.92,3684.39 9580.59,3668.35 9583.27,3654.99 9593.96,3644.3 9607.32,3660.34 9623.37,3660.34 9711.56,3638.95 9716.91,3630.93 9716.91,3620.25 9716.91,3612.22 9730.27,3598.86 9759.67,3577.47 9770.36,3561.43 9781.04,3545.39 9783.72,3537.37 9786.4,3513.32 9786.4,3507.97 9789.08,3502.63 9791.75,3497.29 9797.1,3491.94 9805.12,3481.25 9823.83,3478.58 9845.21,3489.27 10077.74,3614.88 10254.15,3743.17 10278.2,3756.54 10361.06,3761.88 10516.08,3729.81 10524.1,3772.57 10534.79,3793.96 10561.52,3828.71 10577.56,3842.07 10593.6,3858.11 10631.02,3882.16 10660.42,3884.84 10679.13,3887.52 10687.15,3892.86 10703.19,3903.55 10721.9,3924.94 10729.92,3940.98 10737.94,3962.36 10745.96,3978.4 10759.32,3986.43 10775.37,3991.77 10791.41,3991.77 10812.79,3986.43 10844.87,3965.04 10876.94,3946.33 10898.32,3999.79 10927.72,4101.35 10946.43,4232.32 10946.43,4251.03 10943.75,4283.11 10949.1,4307.16 10957.12,4323.2 10967.8,4339.24 10981.17,4352.61 11018.59,4379.34 11037.3,4400.72 11047.98,4430.12 11056,4494.26 11077.39,4520.99 11090.75,4531.68 11138.87,4569.1 11157.58,4574.44 11173.62,4579.79 11211.04,4579.79 11253.8,4585.13 11291.21,4622.55 11328.63,4676.01 11344.67,4710.76 11366.06,4742.83 11387.44,4780.25 11395.46,4809.64 11406.15,4865.77 11414.17,4948.62 11416.85,4970.01 11422.19,4978.03 11435.56,4991.39 11448.92,5002.08 11499.71,5026.13 11542.47,5047.52 11553.15,5079.59 11558.5,5095.63 11582.55,5149.09 11601.26,5181.17 11636.01,5183.84 11654.72,5186.52 11670.76,5194.54 11689.47,5207.91 11726.88,5258.69 11750.94,5298.78 11766.98,5338.88 11791.03,5378.97 11809.74,5403.02 11833.79,5437.77 11865.87,5467.17 11900.62,5491.22 11948.73,5536.66 11980.8,5560.71 12031.59,5611.49 12039.61,5664.95 12044.95,5710.39 11964.76,5761.17 11930.01,5769.19 11812.41,5774.54 11678.77,5758.49 11649.37,5747.81 11633.33,5734.44 11593.24,5646.24 11577.2,5619.51 11555.81,5598.13 11424.84,5550.01 11406.13,5547.34 11363.37,5547.34 11301.9,5512.59 11293.88,5509.91 11272.5,5507.23 11261.81,5517.92 11253.79,5533.96 11256.46,5558.01 11264.48,5579.4 11275.17,5595.44 11288.54,5611.48 11301.9,5619.5 11320.61,5627.52 11331.3,5635.55 11328.62,5670.3 11283.18,5771.86 11253.79,5822.64 11194.98,5862.74 11186.96,5878.78 11178.94,5900.16 11176.27,5956.29 11162.9,6017.76 11122.81,6033.8 11104.1,6028.46 11085.39,6015.09 11069.35,5999.05 11039.95,5950.93 11021.24,5932.23 11002.53,5926.88 10981.15,5926.88 10892.95,5964.3 10735.26,6009.74 10681.8,6049.83 10660.42,6073.87 10625.67,6097.93 10219.4,6188.8z"/>
   <path id="MN065" class="hangai_bus gobi_altai" d="M4037.31,8158.67 4037.31,8153.33 4077.4,7811.21 4080.08,7682.92 4061.37,7445.04 4066.71,7407.62 4082.76,7383.57 4101.47,7364.86 4187,7311.41 4205.71,7295.36 4221.75,7273.98 4248.48,7212.51 4259.16,7199.14 4277.87,7185.78 4288.56,7167.07 4288.56,7148.36 4280.54,7092.24 4283.22,7073.53 4355.38,6889.11 4443.58,6734.09 4454.27,6704.69 4456.95,6669.94 4451.6,6632.52 4440.92,6597.77 4392.8,6504.23 4384.78,6482.84 4382.1,6461.46 4392.79,6450.77 4408.83,6450.77 4427.54,6456.12 4505.05,6464.14 4529.1,6458.79 4569.2,6445.43 4652.05,6365.24 4721.54,6322.48 4873.89,6252.99 4905.96,6228.94 4927.35,6199.54 4932.69,6178.15 4935.37,6138.06 4908.64,6081.93 4839.15,5980.38 4796.39,5902.87 4783.02,5860.11 4772.34,5820.01 4772.34,5787.94 4775.01,5758.55 4769.67,5737.16 4758.98,5718.45 4708.2,5694.4 4601.29,5624.91 4443.6,5480.57 4387.48,5427.12 4355.4,5384.35 4352.73,5362.97 4350.05,5344.26 4347.37,5285.46 4531.79,5264.07 4625.33,5226.65 4724.23,5173.2 4796.4,5125.08 4817.78,5119.74 4844.51,5119.74 4884.61,5127.76 4916.68,5141.12 4935.39,5154.49 4959.44,5175.87 4970.13,5181.22 4978.15,5183.89 5031.61,5191.91 5119.81,5221.31 5218.7,5232 5306.9,5229.32 5320.27,5226.64 5347,5215.96 5355.02,5213.28 5379.07,5215.96 5400.46,5213.28 5464.6,5234.67 5488.66,5245.35 5502.02,5261.39 5518.06,5285.45 5531.43,5306.83 5542.11,5328.22 5550.13,5341.58 5558.16,5349.6 5571.52,5362.97 5598.25,5365.65 5630.32,5346.94 5651.71,5338.92 5844.15,5349.6 5876.22,5373.66 5902.95,5387.02 5927,5395.04 5935.02,5397.72 5980.46,5443.16 6031.24,5480.57 6306.53,5656.98 6327.91,5667.67 6338.6,5670.35 6365.33,5683.71 6381.37,5702.42 6392.06,5718.46 6408.1,5774.59 6426.81,5814.68 6469.57,5870.81 6485.61,5900.2 6501.65,5977.71 6517.7,6023.15 6528.38,6047.2 6536.4,6114.02 6563.13,6114.02 6758.25,6052.56 6784.98,6057.9 6811.71,6073.93 6875.86,6106.01 6883.88,6175.5 6889.22,6204.89 6902.58,6239.64 6923.97,6277.06 6977.43,6335.86 6985.45,6354.57 6982.77,6391.99 6985.45,6408.03 6990.79,6418.72 7028.21,6424.06 7108.4,6426.74 7113.74,6426.74 7127.11,6432.08 7143.15,6442.77 7151.17,6445.45 7161.86,6445.45 7180.57,6442.77 7193.93,6440.09 7217.98,6424.05 7258.08,6386.64 7266.1,6378.61 7276.79,6359.91 7279.46,6354.56 7284.81,6351.88 7298.17,6349.21 7330.25,6349.21 7367.66,6373.26 7421.12,6408.01 7482.59,6424.05 7490.61,6498.89 7485.27,6589.76 7485.27,6616.49 7490.61,6640.54 7498.63,6667.27 7514.67,6715.39 7522.69,6728.75 7533.38,6742.12 7568.13,6760.83 7584.17,6774.19 7594.86,6795.58 7610.9,6846.36 7626.95,6865.07 7691.09,6913.18 7712.48,6934.57 7741.87,6974.66 7757.92,6988.03 7773.96,6998.71 7811.37,7009.4 7835.43,7014.75 7856.81,7020.09 7870.18,7028.11 7896.91,7060.18 8041.24,7263.31 8062.63,7308.75 8075.99,7375.57 8118.75,7680.27 8113.41,7723.03 8105.39,7779.16 8017.19,8078.51 7993.14,8126.62 7982.45,8137.31 7955.72,8164.04 7942.35,8174.73 7931.67,8196.11 7926.32,8220.16 7923.65,8257.58 7923.65,8292.33 7937.01,8431.31 7937.01,8540.9 7931.67,8572.97 7920.98,8621.08 7907.61,8653.16 7888.91,8682.55 7878.22,8698.6 7862.18,8714.64 7824.76,8741.37 7728.54,8792.15 7717.85,8808.19 7712.51,8829.58 7712.51,8925.8 7739.24,9195.75 7739.24,9225.14 7704.49,9513.8 7712.51,9607.34 7709.83,9639.42 7704.49,9674.17 7645.68,9866.61 7608.27,9946.79 7602.92,9976.19 7602.92,10008.26 7643.02,10548.17 7394.45,10516.09 7298.23,10502.73 7143.21,10473.33 7129.85,10476.01 7097.77,10484.03 7081.73,10489.37 6873.25,10510.76 6603.3,10540.15 6541.83,10550.84 6536.49,10526.79 6539.16,10476.01 6525.8,10409.18 6523.12,10350.38 6437.59,10264.85 6400.17,10232.78 6328,10168.63 6303.95,10136.56 6261.19,10096.46 6223.77,10067.07 6199.72,10037.67 6167.65,9994.91 6151.61,9973.52 6148.93,9952.14 6143.59,9887.99 6132.9,9847.9 6130.22,9821.17 6060.73,9666.15 6055.4,9655.46 6042.03,9628.73 6039.36,9612.69 5975.21,9452.32 5967.19,9380.15 5961.84,9366.79 5945.8,9340.06 5908.39,9246.52 5892.34,9219.79 5809.49,9219.79 5745.34,9190.39 5745.34,9182.37 5734.65,9174.35 5734.65,9163.66 5748.02,9144.95 5748.02,9134.27 5753.36,9102.19 5758.71,9038.05 5764.05,9019.34 5766.73,8992.61 5766.73,8981.92 5774.75,8973.9 5801.48,8952.51 5809.5,8944.49 5809.5,8915.1 5798.81,8915.1 5721.3,8928.46 5614.39,8941.83 5590.34,8936.48 5544.9,8949.85 5526.19,8952.52 5496.8,8949.85 5470.07,8923.12 5429.97,8909.75 5413.93,8912.43 5371.17,8899.07 5333.75,8880.36 5317.71,8875.01 5282.96,8864.33 5272.27,8842.94 5256.23,8816.21 5253.56,8805.52 5218.81,8765.43 5189.41,8746.72 5162.68,8730.68 5141.29,8711.97 5125.25,8703.95 5117.23,8695.93 5082.48,8677.22 5069.12,8674.54 5031.7,8677.22 5012.99,8674.54 4994.28,8666.52 4991.61,8631.77 4986.26,8605.04 4967.55,8594.35 4943.5,8583.67 4935.48,8567.63 4908.75,8527.53 4863.31,8498.14 4841.93,8482.09 4812.53,8460.71 4769.77,8433.98 4729.68,8409.93 4694.93,8391.22 4665.53,8380.53 4630.78,8359.14 4596.03,8337.76 4531.88,8308.36 4518.52,8286.98 4489.12,8273.61 4478.43,8268.27 4387.56,8206.8 4368.85,8214.82 4366.17,8214.82 4334.1,8212.14 4302.03,8198.78 4267.28,8180.07 4243.22,8182.75 4235.2,8180.07 4219.16,8177.39 4205.8,8180.07 4187.09,8174.73 4149.67,8161.36 4133.63,8158.68 4109.58,8158.68 4104.23,8156.01 4082.85,8153.33 4037.41,8158.67z"/>
   <path id="MN069" class="hangai_bus bayan_hongor" d="M7642.87,10548.14 7602.77,10008.23 7602.77,9976.16 7608.12,9946.76 7645.53,9866.58 7704.34,9674.14 7709.68,9639.39 7712.36,9607.31 7704.34,9513.77 7739.09,9225.11 7739.09,9195.72 7712.36,8925.76 7712.36,8829.55 7717.7,8808.16 7728.39,8792.12 7824.61,8741.34 7862.02,8714.61 7878.07,8698.57 7888.75,8682.52 7907.46,8653.13 7920.83,8621.05 7931.51,8572.94 7936.86,8540.87 7936.86,8431.28 7923.49,8292.3 7923.49,8257.55 7926.17,8220.13 7931.51,8196.08 7942.2,8174.7 7955.57,8164.01 7982.3,8137.28 7992.98,8126.59 8017.04,8078.48 8105.24,7779.13 8113.26,7723 8118.6,7680.24 8075.84,7375.54 8062.47,7308.72 8041.09,7263.28 7896.75,7060.15 7870.02,7028.08 7856.66,7020.06 7835.27,7014.72 7811.22,7009.37 7773.81,6998.68 7757.76,6988 7741.72,6974.63 7712.33,6934.54 7690.94,6913.15 7626.79,6865.04 7610.75,6846.33 7594.71,6795.55 7584.02,6774.16 7567.98,6760.8 7533.23,6742.09 7522.54,6728.72 7514.52,6715.36 7498.48,6667.24 7490.46,6640.51 7485.12,6616.46 7485.12,6589.73 7490.46,6498.86 7482.44,6424.02 7479.76,6362.55 7485.11,6338.5 7517.18,6258.31 7634.78,5892.15 7640.13,5860.08 7642.81,5825.33 7648.15,5793.26 7661.51,5771.87 7682.9,5758.5 7709.63,5755.83 7781.8,5753.15 7827.23,5742.46 7872.67,5723.75 7934.14,5630.21 7955.53,5584.77 7966.21,5552.7 7960.87,5531.32 7955.53,5509.93 7955.53,5483.2 7966.21,5467.16 8000.96,5429.74 8022.35,5392.32 8035.71,5365.6 8043.74,5344.21 8049.08,5322.82 8054.42,5293.43 8054.42,5280.06 8054.42,5272.04 8051.75,5264.02 8099.86,5218.58 8129.26,5199.87 8204.09,5175.82 8265.56,5167.8 8278.93,5170.48 8292.29,5175.82 8305.66,5181.17 8313.68,5191.85 8324.36,5202.54 8343.07,5250.66 8343.07,5322.82 8353.76,5344.21 8367.12,5360.25 8500.76,5448.45 8519.47,5456.47 8543.52,5456.47 8634.4,5453.79 8698.54,5443.11 8719.93,5435.09 8733.3,5427.06 8749.34,5416.38 8786.75,5365.6 8802.8,5354.91 8821.5,5349.56 8869.62,5341.54 8885.66,5330.85 8899.03,5320.17 8912.39,5301.46 8931.1,5282.75 8984.56,5250.68 9003.27,5248 9003.27,5336.2 9008.61,5370.95 9019.3,5397.68 9032.66,5416.39 9054.05,5437.77 9110.17,5483.21 9128.88,5509.94 9139.57,5539.34 9142.25,5566.07 9139.57,5595.46 9134.23,5651.59 9134.23,5678.32 9136.9,5710.39 9144.92,5729.1 9152.94,5750.48 9155.62,5766.53 9158.3,5782.57 9155.62,5803.95 9155.62,5825.34 9160.97,5852.07 9168.99,5870.78 9182.35,5881.46 9198.39,5881.46 9265.22,5865.42 9529.82,5785.23 9553.87,5779.89 9569.92,5782.57 9577.94,5793.26 9585.96,5862.75 9596.65,5889.47 9615.35,5918.87 9626.04,5945.6 9636.73,5985.69 9642.07,5996.38 9650.09,6001.73 9690.19,6012.41 9714.24,6020.43 9738.29,6041.82 9751.66,6063.2 9767.7,6113.98 9778.39,6138.03 9789.08,6154.07 9805.12,6164.76 9861.24,6162.08 9917.37,6143.37 9944.1,6143.37 10026.95,6156.74 10061.7,6154.06 10155.25,6132.68 10173.95,6140.7 10219.39,6188.81 10248.79,6244.94 10256.81,6258.3 10342.34,6343.83 10414.51,6434.71 10419.85,6522.91 10425.2,6541.62 10430.54,6560.33 10441.23,6573.69 10443.9,6589.73 10441.23,6611.12 10374.4,6696.65 10361.04,6726.05 10369.06,6744.75 10379.75,6755.44 10390.44,6774.15 10398.46,6800.88 10403.8,6857.01 10403.8,6899.77 10398.46,6921.15 10393.11,6934.52 10379.75,6953.23 10361.04,6969.27 10336.99,6979.95 10296.89,6996 10280.85,7009.36 10267.49,7028.07 10256.8,7052.12 10246.11,7076.17 10240.77,7102.9 10243.44,7196.45 10254.13,7252.57 10256.81,7289.99 10254.13,7332.75 10222.06,7447.68 10224.74,7503.8 10222.06,7530.53 10195.33,7600.02 10160.58,7648.14 10117.82,7690.9 10109.8,7704.26 10104.45,7720.31 10104.45,7741.69 10115.14,7797.82 10115.14,7821.87 10112.46,7853.94 10115.14,7869.98 10120.49,7886.03 10128.51,8000.95 10133.85,8041.05 10144.54,8089.16 10152.56,8113.22 10160.58,8134.6 10176.62,8150.64 10195.33,8164.01 10288.87,8193.4 10336.99,8222.8 10366.38,8249.53 10435.87,8292.29 10451.92,8321.69 10430.53,8380.49 10401.13,8455.32 10398.46,8466.01 10398.46,8482.05 10401.13,8500.76 10411.82,8527.49 10446.57,8605 10467.96,8666.47 10590.91,9163.61 10216.72,9393.47 10179.3,9406.83 10163.26,9409.51 9580.59,9401.49 9513.77,9414.85 9460.31,9396.15 9350.73,9283.88 9265.2,9168.96 9136.9,9051.35 9126.21,9043.33 9115.53,9040.65 9104.84,9043.33 8877.65,9102.13 8872.31,9110.15 8869.63,9123.52 8866.95,9190.34 8901.7,10056.32 8979.21,10679.07 8981.89,10679.07 8869.63,10711.15 8562.26,10671.05 8254.89,10630.96 7950.19,10590.87 7642.83,10548.1z"/>
   <path id="MN067" class="tuv_bus bulgan" d="M10516.09,3729.9 10513.42,3721.88 10500.05,3647.05 10500.05,3617.65 10500.05,3598.94 10505.39,3580.23 10532.12,3508.06 10542.81,3489.36 10569.54,3459.96 10601.61,3454.62 10612.3,3451.94 10631.01,3441.25 10649.72,3419.87 10660.41,3401.16 10665.75,3385.12 10700.5,3358.39 10729.9,3323.64 10743.26,3310.27 10759.3,3299.58 10804.74,3280.88 10860.87,3267.51 10895.62,3254.15 10927.69,3251.47 10989.16,3230.08 11023.91,3214.04 11037.27,3206.02 11072.03,3176.62 11101.42,3141.87 11109.44,3128.51 11130.83,3085.75 11154.88,3016.26 11162.9,3002.89 11168.24,2997.55 11184.29,2986.86 11200.33,2984.18 11213.69,2984.18 11256.45,2992.21 11272.5,2992.21 11283.18,2989.53 11307.24,2976.16 11368.71,2928.05 11341.98,2898.65 11320.59,2877.27 11259.12,2842.52 11197.65,2813.12 11144.19,2797.08 11047.97,2751.64 10983.83,2730.26 10922.36,2703.53 10882.26,2679.47 10868.9,2668.79 10860.88,2658.1 10858.2,2647.41 10855.52,2628.7 10855.52,2609.99 10860.87,2588.61 10876.91,2561.88 10908.98,2527.13 10941.06,2481.69 10943.73,2465.65 10965.12,2436.25 10983.83,2417.54 10999.87,2401.5 11015.91,2388.14 11042.64,2358.74 11047.98,2348.05 11064.02,2310.64 11072.05,2262.52 11077.39,2249.16 11085.41,2222.43 11093.43,2211.74 11122.83,2179.67 11154.9,2147.59 11203.02,2120.86 11243.11,2096.81 11245.79,2096.81 11352.69,2123.54 11446.24,2195.71 11478.31,2209.07 11513.06,2217.09 11630.67,2201.05 11684.12,2217.09 11713.52,2278.56 11724.21,2313.31 11740.25,2334.7 11764.3,2342.72 11839.14,2334.7 11863.19,2340.04 11889.92,2353.41 11935.36,2385.48 11986.14,2409.53 12036.92,2412.21 12125.12,2348.06 12170.56,2348.06 12266.78,2390.82 12317.56,2401.51 12379.03,2390.82 12437.83,2366.77 12475.25,2324.01 12491.29,2297.28 12531.38,2267.89 12552.77,2246.5 12624.94,2310.65 12683.74,2390.84 12691.76,2409.54 12702.45,2446.96 12705.12,2468.35 12707.8,2508.44 12753.24,2556.56 12747.89,2564.58 12742.55,2575.26 12729.19,2580.61 12713.14,2585.95 12678.39,2588.63 12675.72,2650.1 12678.39,2690.19 12683.74,2714.24 12691.76,2735.63 12721.16,2775.72 12806.69,2869.27 12822.73,2896 12841.44,2933.41 12796,2981.53 12796,3101.8 12793.32,3141.89 12787.98,3165.95 12771.94,3230.09 12753.23,3264.84 12737.19,3310.28 12723.82,3385.12 12705.11,3462.63 12694.43,3550.83 12681.06,3606.95 12643.64,3588.24 12622.26,3582.9 12592.86,3577.55 12574.15,3580.23 12555.45,3585.58 12547.42,3590.92 12501.99,3636.36 12395.08,3601.61 12365.68,3590.92 12333.61,3620.32 12288.17,3681.79 12288.17,3745.93 12427.15,3786.03 12469.91,3791.37 12515.35,3812.76 12539.4,3828.8 12574.15,3844.84 12608.9,3879.59 12643.65,3908.99 12667.71,3941.06 12697.1,3970.45 12694.43,3978.48 12686.4,3994.52 12678.38,4005.2 12683.73,4013.23 12673.04,4031.93 12681.06,4114.79 12686.4,4160.23 12694.43,4259.12 12694.43,4347.32 12691.75,4395.44 12678.38,4446.22 12670.36,4462.26 12662.34,4470.28 12622.25,4499.68 12590.18,4531.75 12563.45,4579.87 12544.74,4633.33 12536.72,4654.71 12504.64,4708.17 12536.72,4742.92 12574.13,4799.05 12579.48,4823.1 12584.82,4881.9 12616.89,4903.29 12662.33,4919.33 12705.09,4927.35 12782.6,4930.03 12790.63,4927.35 12798.65,4922 12809.33,4924.68 12814.68,4927.36 12820.02,4932.7 12822.7,4943.39 12825.38,4972.79 12809.33,4988.83 12812.01,5042.29 12814.69,5077.04 12846.76,5199.99 12862.8,5250.77 12785.29,5258.79 12686.39,5258.79 12675.71,5285.52 12654.32,5320.27 12595.52,5320.27 12555.42,5322.95 12536.72,5325.62 12501.97,5338.99 12405.75,5403.13 12373.67,5435.21 12338.92,5467.28 12352.29,5510.04 12360.31,5523.41 12371,5536.77 12387.04,5552.81 12411.09,5579.54 12416.43,5590.23 12419.11,5606.27 12419.11,5622.31 12400.4,5657.06 12344.28,5673.1 12250.73,5694.49 12186.59,5702.51 12170.55,5699.83 12143.82,5697.16 12125.11,5694.48 12098.38,5697.16 12044.92,5710.52 12039.58,5665.08 12031.56,5611.62 11980.77,5560.84 11948.7,5536.79 11900.59,5491.35 11865.84,5467.3 11833.76,5437.9 11809.71,5403.15 11791,5379.1 11766.95,5339.01 11750.91,5298.91 11726.85,5258.82 11689.44,5208.04 11670.73,5194.67 11654.69,5186.65 11635.98,5183.97 11601.23,5181.3 11582.52,5149.22 11558.47,5095.77 11553.12,5079.72 11542.44,5047.65 11499.67,5026.27 11448.89,5002.21 11435.53,4991.53 11422.16,4978.16 11416.82,4970.14 11414.14,4948.75 11406.12,4865.9 11395.43,4809.77 11387.41,4780.38 11366.03,4742.96 11344.64,4710.89 11328.6,4676.14 11291.18,4622.68 11253.77,4585.26 11211.01,4579.92 11173.59,4579.92 11157.55,4574.57 11138.84,4569.23 11090.72,4531.81 11077.36,4521.12 11055.97,4494.39 11047.95,4430.25 11037.26,4400.85 11018.56,4379.47 10981.14,4352.74 10967.77,4339.37 10957.09,4323.33 10949.07,4307.29 10943.72,4283.24 10946.4,4251.16 10946.4,4232.46 10927.69,4101.49 10898.29,3999.92 10876.91,3946.46 10844.84,3965.17 10812.76,3986.56 10791.38,3991.9 10775.33,3991.9 10759.29,3986.56 10745.93,3978.54 10737.91,3962.49 10729.89,3941.11 10721.87,3925.07 10703.16,3903.68 10687.12,3892.99 10679.1,3887.65 10660.39,3884.97 10630.99,3882.3 10593.57,3858.24 10577.53,3842.2 10561.49,3828.84 10534.76,3794.09 10524.07,3772.7 10516.05,3729.94z"/>
   <path id="MN035" class="tuv_bus orhon" d="M12574.13,3844.83 12539.38,3828.79 12515.33,3812.75 12469.89,3791.36 12427.13,3786.02 12288.15,3745.92 12288.15,3681.78 12333.59,3620.31 12365.66,3590.91 12395.06,3601.6 12501.97,3636.35 12547.4,3590.91 12555.42,3585.57 12574.13,3580.22 12592.84,3577.54 12622.24,3582.89 12643.62,3588.23 12681.04,3606.94 12689.06,3639.01 12710.45,3681.78 12718.47,3700.48 12718.47,3716.53 12713.12,3732.57 12702.44,3745.93 12678.38,3769.98 12643.63,3799.38 12574.14,3844.82z"/>
   <path id="MN049" class="tuv_bus selenge" d="M12681.04 3606.96l13.36 -56.13 10.69 -88.2 18.71 -77.51 13.36 -74.83 16.04 -45.44 18.71 -34.75 16.04 -64.15 5.34 -24.05 2.68 -40.09 0 -120.27 45.44 -48.11 -18.71 -37.42 -16.04 -26.73 -85.53 -93.54 -29.4 -40.09 -8.02 -21.39 -5.34 -24.05 -2.68 -40.09 2.68 -61.47 34.75 -2.68 16.04 -5.34 13.36 -5.34 5.34 -10.69 5.34 -8.02 -45.44 -48.11 -2.68 -40.09 -2.68 -21.39 -10.69 -37.42 -8.02 -18.71 -58.8 -80.19 -72.17 -64.15 18.71 -21.39 24.05 -13.36 50.78 -13.36 77.51 2.68 24.05 -5.34 18.71 -10.69 29.4 -29.4 18.71 -5.34 69.49 0 21.39 -5.34 45.44 -32.07 18.71 -5.34 24.05 -5.34 88.2 10.69 21.39 0 18.71 -5.34 21.39 -10.69 80.19 -72.17 29.4 -16.04 37.42 -5.34 235.2 64.15 106.91 -8.02 18.71 5.34 37.42 16.04 37.42 8.02 40.09 2.68 21.39 2.68 40.09 34.75 2.68 8.02 0 10.69 2.68 10.69 2.68 10.69 5.34 5.34 58.8 5.34 21.39 10.69 29.4 24.05 16.04 8.02 16.04 2.68 147 -45.44 82.86 -8.02 82.86 10.69 66.82 21.39 32.07 18.71 112.26 98.9 26.73 13.36 8.02 10.69 10.69 45.44 5.34 10.69 16.04 16.04 5.34 8.02 5.34 13.36 5.34 29.4 8.02 10.69 10.69 10.69 21.39 10.69 10.69 8.02 37.42 34.75 21.39 16.04 24.05 10.69 24.05 -2.68 18.71 -10.69 18.71 -2.68 45.44 40.09 275.29 5.34 10.69 5.34 5.34 2.68 26.73 21.39 16.04 2.68 24.05 -2.68 8.02 0 37.42 13.36 34.75 2.68 8.02 10.69 -2.68 32.07 -5.34 18.71 -8.02 16.04 -2.68 18.71 0 24.05 13.36 56.13 5.34 42.76 0 16.04 -5.34 13.36 -16.04 45.44 0 13.36 8.02 8.02 18.71 2.68 29.4 -2.68 10.69 10.69 -8.02 24.05 0 18.71 8.02 18.71 13.36 16.04 53.46 40.09 16.04 8.02 64.15 8.02 18.71 8.02 10.69 13.36 8.02 13.36 5.34 16.04 8.02 16.04 42.76 53.46 104.24 93.54 48.11 32.07 24.05 2.68 -24.05 114.93 -10.69 120.27 -29.4 -2.68 -24.05 0 -88.2 13.36 -26.73 8.02 -53.46 24.05 -48.11 29.4 -10.69 13.36 -18.71 21.39 -29.4 24.05 -69.49 -50.78 -18.71 -8.02 -26.73 -10.69 -21.39 -5.34 -29.4 -2.68 -56.13 0 -21.39 2.68 -45.44 13.36 -24.05 8.02 -53.46 40.09 -53.46 50.78 40.09 74.83 10.69 13.36 21.39 18.71 48.11 24.05 16.04 8.02 5.34 8.02 8.02 16.04 5.34 18.71 -2.68 26.73 -18.71 45.44 -13.36 45.44 -13.36 37.42 -13.36 34.75 -8.02 13.36 -5.34 8.02 -16.04 8.02 -16.04 2.68 -40.09 -5.34 -13.36 0 -13.36 5.34 -24.05 16.04 -32.07 16.04 -45.44 16.04 -90.88 29.4 -32.07 -40.09 -10.69 -10.69 -16.04 -8.02 -18.71 -8.02 -26.73 -2.68 -29.4 2.68 -58.8 16.04 -13.36 0 -56.13 -2.68 -24.05 5.34 -13.36 5.34 -21.39 18.71 -18.71 21.39 -32.07 29.4 -21.39 10.69 -26.73 8.02 -24.05 0 -69.49 -16.04 -29.4 -10.69 -42.76 -24.05 -8.02 -18.71 -13.36 -13.36 -117.61 -56.13 -90.88 -56.13 -24.05 18.71 -18.71 13.36 -37.42 13.36 -37.42 -24.05 -13.36 -13.36 -8.02 -8.02 16.04 -42.76 13.36 -45.44 0 -29.4 -5.34 -18.71 -5.34 -8.02 -13.36 -16.04 -24.05 -18.71 -24.05 -8.02 -74.83 -16.04 -138.98 34.75 -48.11 16.04 -18.71 10.69 -37.42 24.05 -50.78 40.09 10.69 29.4 13.36 61.47 13.36 37.42 -50.78 26.73 -50.78 24.05 -42.76 24.05 -24.05 16.04 -16.04 5.34 -45.44 8.02 -16.04 5.34 -50.78 26.73 -16.04 13.36 -16.04 5.34 -16.04 2.68 -18.71 0 -40.09 -10.69 -48.11 -21.39 -53.46 -16.04 -37.42 -13.36 -53.46 -24.05 -133.64 -50.78 -5.34 -45.44 -8.02 -82.86 10.69 -18.71 -5.34 -8.02 8.02 -10.69 8.02 -16.04 2.68 -8.02 -29.4 -29.4 -24.05 -32.07 -34.75 -29.4 -34.75 -34.75 69.49 -45.44 34.75 -29.4 24.05 -24.05 10.69 -13.36 5.34 -16.04 0 -16.04 -8.02 -18.71 -21.39 -42.76 -8.02 -32.07 0.01 -0.05zm1392.51 -483.78l-24.05 -5.34 -37.42 -10.69 -32.07 -16.04 -32.07 -24.05 -34.75 -16.04 -24.05 -16.04 -32.07 -13.36 -29.4 -8.02 8.02 -26.73 13.36 -34.75 42.76 -50.78 8.02 -13.36 2.68 -5.34 2.68 -16.04 0 -26.73 -5.34 -66.82 -61.47 21.39 -8.02 5.34 -2.68 2.68 -21.39 45.44 -16.04 24.05 -10.69 10.69 -10.69 5.34 -45.44 32.07 -5.34 8.02 -18.71 34.75 -8.02 13.36 -18.71 16.04 5.34 37.42 13.36 32.07 2.68 24.05 5.34 21.39 13.36 24.05 5.34 13.36 2.68 13.36 0 2.68 0 26.73 -2.68 50.78 -5.34 21.39 -18.71 114.93 -10.69 90.88 -16.04 82.86 -13.36 29.4 45.44 18.71 29.4 10.69 82.86 13.36 16.04 0 18.71 -2.68 18.71 -5.34 8.02 -2.68 16.04 -13.36 26.73 -29.4 48.11 -29.4 45.44 -16.04 18.71 -2.68 40.09 -2.68 24.05 34.75 37.42 26.73 24.05 13.36 98.9 37.42 85.53 -24.05 64.15 -26.73 -2.68 -88.2 -10.69 -64.15 5.34 -61.47 8.02 -61.47 2.68 -72.17 -2.68 -45.44 -5.34 -21.39 -10.69 -21.39 -8.02 -13.36 -21.39 -21.39 -13.36 -8.02 -26.73 -13.36 -24.05 -16.04 -24.05 -10.69 -88.2 -32.07 -26.73 45.44 -16.04 18.71 -29.4 24.05 -16.04 5.34 -18.71 2.68 -0.03 0.03z"/>
   <path id="MN037" class="tuv_bus darhan_uul" d="M14073.55,3123.19 14092.26,3120.51 14108.31,3115.16 14137.7,3091.11 14153.74,3072.4 14180.47,3026.97 14268.67,3059.04 14292.72,3069.73 14316.78,3085.77 14343.51,3099.13 14356.87,3107.15 14378.26,3128.54 14386.28,3141.9 14396.96,3163.29 14402.31,3184.68 14404.98,3230.11 14402.31,3302.28 14394.29,3363.75 14388.94,3425.22 14399.63,3489.37 14402.31,3577.57 14338.16,3604.29 14252.63,3628.35 14153.73,3590.93 14129.68,3577.57 14092.26,3550.84 14068.21,3516.09 14028.12,3518.76 14009.41,3521.44 13963.97,3537.48 13915.86,3566.88 13889.13,3596.27 13873.08,3609.64 13865.06,3612.32 13846.36,3617.66 13827.65,3620.34 13811.6,3620.34 13728.75,3606.97 13699.35,3596.28 13653.92,3577.58 13667.28,3548.18 13683.32,3465.32 13694.01,3374.45 13712.72,3259.52 13718.06,3238.13 13720.74,3187.35 13720.74,3160.62 13720.74,3157.95 13718.06,3144.58 13712.72,3131.22 13699.35,3107.16 13694.01,3085.78 13691.33,3061.73 13677.97,3029.65 13672.62,2992.24 13691.33,2976.19 13699.35,2962.83 13718.06,2928.08 13723.41,2920.06 13768.84,2887.99 13779.53,2882.64 13790.22,2871.95 13806.26,2847.9 13827.65,2802.46 13830.32,2799.79 13838.34,2794.44 13899.81,2773.06 13905.16,2839.88 13905.16,2866.61 13902.48,2882.65 13899.8,2888 13891.78,2901.36 13849.02,2952.14 13835.66,2986.89 13827.64,3013.62 13857.03,3021.64 13889.11,3035.01 13913.16,3051.05 13947.91,3067.09 13979.98,3091.14 14012.06,3107.18 14049.47,3117.87 14073.52,3123.22z"/>
   <path id="MN047" class="tuv_bus tuv" d="M15933.8 5975.03l-50.78 128.28 -10.69 13.36 -26.73 26.73 -53.46 29.4 -120.27 58.8 -93.54 -13.36 -114.93 -21.39 -66.82 0 -48.11 10.69 -37.42 10.69 -34.75 18.71 -74.83 16.04 -5.34 42.76 -5.34 42.76 -5.34 66.82 -2.68 16.04 -8.02 18.71 -5.34 8.02 -13.36 13.36 -8.02 5.34 -18.71 5.34 -64.15 8.02 -34.75 13.36 -16.04 10.69 -5.34 5.34 -40.09 58.8 -10.69 10.69 -13.36 10.69 -77.51 29.4 -37.42 10.69 -18.71 2.68 -120.27 5.34 -61.47 8.02 -45.44 -32.07 -32.07 -29.4 -45.44 -45.44 -29.4 -29.4 -48.11 -26.73 -26.73 -8.02 -74.83 -16.04 -50.78 0 -66.82 0 -144.33 0 -144.33 -2.68 -8.02 -21.39 -5.34 -8.02 -13.36 -13.36 -16.04 -10.69 -80.19 -24.05 -26.73 -10.69 -34.75 -24.05 -48.11 -45.44 -13.36 -10.69 -8.02 -2.68 -18.71 -2.68 -26.73 2.68 -50.78 10.69 -29.4 13.36 -66.82 93.54 -16.04 18.71 -56.13 74.83 -58.8 109.58 -37.42 -32.07 -29.4 -21.39 -18.71 -16.04 -45.44 -26.73 -50.78 -18.71 -74.83 -24.05 -69.49 -26.73 -66.82 85.53 -26.73 26.73 -42.76 29.4 -101.56 88.2 -16.04 -16.04 -18.71 -26.73 -34.75 -32.07 -96.22 -66.82 -13.36 -10.69 -5.34 -10.69 -8.02 -16.04 -2.68 -18.71 0 -104.24 -2.68 -18.71 -5.34 -21.39 -8.02 -21.39 -21.39 -29.4 -16.04 -34.75 -13.36 -18.71 -24.05 -34.75 -29.4 -37.42 32.07 -34.75 18.71 -16.04 13.36 -5.34 21.39 -2.68 5.34 -48.1 2.68 -29.4 -2.68 -24.05 -5.34 -18.71 -5.34 -16.04 -8.02 -13.36 -29.4 -32.07 -48.11 -42.76 -26.73 -32.07 -8.02 -13.36 -13.36 -34.75 -10.69 -64.15 -2.68 -29.4 2.68 -37.42 18.71 -34.75 0 -16.04 -2.68 -16.04 -5.34 -10.69 -24.05 -26.73 -16.04 -16.04 -10.69 -13.36 -8.02 -13.36 -13.36 -42.76 34.75 -32.07 32.07 -32.07 96.22 -64.15 34.75 -13.36 18.71 -2.68 40.09 -2.68 58.8 0 21.39 -34.75 10.69 -26.73 98.9 0 77.51 -8.02 -16.04 -50.78 -32.07 -122.95 -2.68 -34.75 -2.68 -53.46 16.04 -16.04 -2.68 -29.4 -2.68 -10.69 -5.34 -5.34 -5.34 -2.68 -10.69 -2.68 -8.02 5.34 -8.02 2.68 -77.51 -2.68 -42.76 -8.02 -45.44 -16.04 -32.07 -21.39 -5.34 -58.8 -5.34 -24.05 -37.42 -56.13 -32.07 -34.75 32.07 -53.46 8.02 -21.39 18.71 -53.46 26.73 -48.11 32.07 -32.07 40.09 -29.4 8.02 -8.02 8.02 -16.04 13.36 -50.78 2.68 -48.11 0 -88.2 -8.02 -98.9 133.64 50.78 53.46 24.05 37.42 13.36 53.46 16.04 48.11 21.39 40.09 10.69 18.71 0 16.04 -2.68 16.04 -5.34 16.04 -13.36 50.78 -26.73 16.04 -5.34 45.44 -8.02 16.04 -5.34 24.05 -16.04 42.76 -24.05 50.78 -24.05 50.78 -26.73 -13.36 -37.42 -13.36 -61.47 -10.69 -29.4 50.78 -40.09 37.42 -24.05 18.71 -10.69 48.11 -16.04 138.98 -34.75 74.83 16.04 24.05 8.02 24.05 18.71 13.36 16.04 5.34 8.02 5.34 18.71 0 29.4 -13.36 45.44 -16.04 42.76 8.02 8.02 13.36 13.36 37.42 24.05 37.42 -13.36 18.71 -13.36 24.05 -18.71 90.88 56.13 117.61 56.13 13.36 13.36 8.02 18.71 42.76 24.05 29.4 10.69 69.49 16.04 24.05 0 26.73 -8.02 21.39 -10.69 32.07 -29.4 18.71 -21.39 21.39 -18.71 13.36 -5.34 24.05 -5.34 56.13 2.68 13.36 0 58.8 -16.04 29.4 -2.68 26.73 2.68 18.71 8.02 16.04 8.02 10.69 10.69 32.07 40.09 90.88 -29.4 45.44 -16.04 32.07 -16.04 24.05 -16.04 13.36 -5.34 13.36 0 40.09 5.34 16.04 -2.68 16.04 -8.02 5.34 -8.02 8.02 -13.36 13.36 -34.75 13.36 -37.42 13.36 -45.44 18.71 -45.44 2.68 -26.73 -5.34 -18.71 -8.02 -16.04 -5.34 -8.02 -16.04 -8.02 -48.11 -24.05 -21.39 -18.71 -10.69 -13.36 -40.09 -74.83 53.46 -50.78 53.46 -40.09 24.05 -8.02 45.44 -13.36 21.39 -2.68 56.13 0 29.4 2.68 21.39 5.34 26.73 10.69 18.71 8.02 69.49 50.78 29.4 -24.05 18.71 -21.39 10.69 -13.36 48.11 -29.4 53.46 -24.05 26.73 -8.02 88.2 -13.36 24.05 0 29.4 2.68 21.39 29.4 21.39 16.04 13.36 18.71 16.04 13.36 16.04 16.04 45.44 45.44 29.4 32.07 26.73 48.11 32.07 80.19 29.4 53.46 5.34 18.71 8.02 56.13 5.34 18.71 16.04 37.42 13.36 37.42 24.05 133.64 18.71 66.82 10.69 45.44 21.39 56.13 13.36 66.82 2.68 26.73 -2.68 29.4 -13.36 37.42 -13.36 26.73 -10.69 8.02 -13.36 13.36 -16.04 26.73 -16.04 45.44 -10.69 53.46 -10.69 26.73 -10.69 10.69 -8.02 5.34 -26.73 13.36 -10.69 8.02 -26.73 24.05 -45.44 45.44 -32.07 29.4 -13.36 10.69 -32.07 18.71 -18.71 8.02 -37.42 10.69 -50.78 10.69 -98.9 -5.34 -53.46 53.46 -24.05 29.4 -10.69 21.39 -16.04 48.11 -10.69 37.42 -2.68 29.4 2.68 21.39 13.36 48.11 8.02 42.76 24.05 37.42 16.04 13.36 16.04 8.02 93.54 16.04 -8.02 18.71 -10.69 16.04 -5.34 18.71 5.34 13.36 8.02 5.34 8.02 5.34 8.02 5.34 5.34 8.02 13.36 50.78 8.02 21.39 8.02 8.02 45.44 50.78 5.34 8.02 0 10.69 16.04 64.15 8.02 13.36 24.05 26.73 10.69 13.36 29.4 88.2 13.36 42.76 8.02 21.39 26.73 32.07 24.05 24.05 50.78 40.09 0 0.14zm-1470.03 -1298.96l-16.04 -5.34 -45.44 -18.71 -18.71 -5.34 -64.15 -13.36 -77.51 -18.71 2.68 0 -176.41 -34.75 13.36 50.78 13.36 53.46 21.39 74.83 8.02 147 18.71 26.73 10.69 16.04 10.69 34.75 10.69 37.42 0 88.2 5.34 21.39 5.34 18.71 8.02 8.02 16.04 10.69 64.15 16.04 26.73 10.69 112.26 -10.69 88.2 -16.04 18.71 0 58.8 2.68 29.4 5.34 29.4 10.69 26.73 21.39 58.8 50.78 18.71 10.69 21.39 5.34 45.44 5.34 56.13 -2.68 34.75 -5.34 40.09 -10.69 2.68 -26.73 21.39 -104.24 8.02 -53.46 18.71 -74.83 0 -18.71 -5.34 -16.04 -10.69 -16.04 -21.39 -13.36 -48.11 -16.04 -48.11 -10.69 -18.71 -5.34 -18.71 -10.69 -13.36 -13.36 -13.36 -13.36 -21.39 -29.4 -21.39 -24.05 -45.44 -74.83 -40.09 -48.11 -16.04 -29.4 -18.71 -40.09 -74.83 32.07 -61.47 18.71 -29.4 2.68z"/>
   <path id="MN053" class="gobi_bus umnugobi" d="M15089.21,8682.53 15057.14,8834.88 15057.14,8866.95 15059.81,8885.66 15067.84,8909.71 15134.66,9046.03 15292.35,9529.8 15297.69,9684.82 15300.37,9810.44 15308.39,9906.66 15345.81,10104.44 15348.48,10144.54 15348.48,10184.63 15345.81,10232.75 15335.12,10280.86 15324.43,10323.62 15321.75,10347.67 15345.81,10839.46 15097.24,10879.56 15057.15,10876.88 15030.42,10887.57 14990.32,10892.91 14942.21,10884.89 14894.09,10839.45 14851.33,10844.8 14824.6,10858.16 14787.19,10863.5 14760.46,10884.89 14739.07,10919.64 14709.68,10927.66 14698.99,10935.68 14677.6,10949.05 14378.26,10997.16 14038.81,11146.84 13699.37,11293.84 13400.03,11451.53 13346.57,11478.26 13314.49,11504.99 13303.81,11510.33 13290.44,11515.68 13250.35,11537.06 13207.59,11542.41 13194.22,11547.75 13055.24,11697.43 13031.19,11705.45 13017.83,11686.74 12988.43,11657.34 12980.41,11657.34 12977.73,11654.67 12961.69,11649.32 12742.52,11646.65 12699.76,11641.3 12699.76,11630.61 12678.37,11625.27 12678.37,11438.18 12665.01,11438.18 12665.01,11419.47 12371.01,11478.27 12167.88,11518.36 12018.2,11483.61 11980.78,11470.25 11881.89,11438.18 11833.77,11414.12 11611.94,11293.85 11587.88,11283.16 11547.79,11275.14 11539.77,11269.8 11529.08,11264.45 11462.26,11235.06 11419.5,11208.33 11408.81,11202.98 11374.06,11178.93 11320.6,11157.55 11256.45,11149.53 11205.67,11149.53 11170.92,11136.16 11146.87,11157.55 11120.14,11149.53 11090.74,11144.18 11053.33,11144.18 11007.89,11136.16 10954.43,11106.77 10917.01,11096.08 10892.96,11101.42 10852.87,11085.38 10834.16,11061.33 10796.74,11010.55 10778.03,10981.15 10631.03,10780.69 10596.28,10767.32 10478.68,10756.64 10462.63,10753.96 10459.96,10753.96 10443.91,10751.28 10355.72,10735.24 10320.97,10727.22 10272.85,10711.18 9997.56,10636.34 9920.05,10609.61 9879.95,10601.59 9810.46,10604.27 9732.95,10614.96 9658.12,10601.59 9524.48,10604.27 9489.73,10631 9278.58,10596.25 9243.83,10596.25 8981.9,10679.11 8979.22,10679.11 8901.71,10056.35 8866.96,9190.37 8869.64,9123.55 8872.32,9110.18 8877.66,9102.16 9104.85,9043.36 9115.54,9040.68 9126.23,9043.36 9136.91,9051.38 9265.21,9168.99 9350.74,9283.91 9460.32,9396.18 9513.78,9414.88 9580.6,9401.52 10163.27,9409.54 10179.31,9406.86 10216.73,9393.5 10590.92,9163.64 10649.72,9136.91 10871.55,9067.42 11251.09,9038.03 11531.73,9059.41 11534.4,9043.37 11526.38,9013.97 11480.95,8885.68 11480.95,8850.93 11488.97,8821.53 11526.38,8789.46 11537.07,8770.75 11550.44,8741.36 11563.8,8690.57 11574.49,8655.82 11705.46,8372.51 11726.84,8332.41 11884.53,8246.88 12012.83,8147.99 12034.21,8123.93 12050.25,8099.88 12103.71,7998.32 12111.73,7979.61 12114.41,7960.9 12362.98,7966.24 12379.02,7987.63 12384.36,7995.65 12384.36,8000.99 12384.36,8006.34 12381.68,8027.72 12381.68,8041.09 12384.36,8083.85 12384.36,8089.19 12384.36,8094.54 12381.68,8102.56 12373.66,8115.92 12373.66,8123.94 12373.66,8129.29 12373.66,8137.31 12373.66,8142.65 12376.34,8156.02 12379.02,8164.04 12379.02,8172.06 12379.02,8185.42 12376.34,8209.48 12373.66,8222.84 12370.99,8230.86 12373.66,8241.55 12403.06,8305.7 12421.77,8327.08 12440.48,8343.12 12496.6,8361.83 12833.38,8415.29 13143.42,8450.04 13357.25,8471.43 13402.68,8482.11 13418.73,8492.8 13514.95,8669.21 13563.06,8738.7 13584.45,8781.46 13595.13,8808.19 13595.13,8829.58 13595.13,8850.96 13605.82,8877.69 13619.19,8899.08 13680.66,8949.86 13736.78,8984.61 13795.58,9008.66 13819.64,9014 14054.84,8976.59 14121.66,8965.9 14156.41,8955.21 14212.54,8931.16 14279.36,8877.7 14332.82,8848.3 14765.81,8698.63 14787.2,8698.63 14821.95,8703.97 14875.41,8730.7 14891.45,8733.38 14966.28,8722.69 15089.23,8682.59z"/>
   <path id="MN063" class="gobi_bus dornogobi" d="M17748.61 6835.65l280.64 128.29 13.36 16.04 8.02 18.71 13.36 45.44 66.82 147 16.04 50.78 10.69 56.13 -13.36 285.98 0 34.75 5.34 8.02 10.69 13.36 21.38 10.69 24.05 24.05 8.02 26.73 8.02 66.82 16.04 21.39 16.04 16.04 18.71 13.36 16.04 13.36 21.39 26.73 5.34 18.71 2.68 24.05 -2.68 53.46 0 48.11 2.68 61.47 0 2.68 -2.68 0 -8.02 2.68 -8.02 2.68 -8.02 8.02 -34.75 24.05 -29.4 8.02 -13.36 8.02 -45.44 32.07 -18.7 21.39 -16.04 24.05 -141.66 291.34 -8.02 26.73 0 16.04 2.68 37.42 0 16.04 -5.34 21.39 -5.34 13.36 -16.04 24.05 -18.71 42.76 -8.02 10.69 -2.68 2.68 -18.71 18.71 -16.04 29.4 -13.36 34.75 -8.02 29.4 0 42.76 10.69 21.39 48.11 29.4 13.36 18.71 5.34 18.71 5.34 40.09 10.69 40.09 18.71 32.07 66.82 96.22 26.73 26.73 85.52 56.13 21.39 24.05 21.39 26.73 69.49 122.95 10.69 37.42 2.68 29.4 -2.68 34.75 -8.02 29.4 -18.71 10.69 -10.69 2.68 -37.42 16.04 -53.45 -2.68 -16.04 8.02 -117.61 144.33 -21.39 24.05 -26.73 10.69 -80.19 8.02 -18.71 8.02 -48.11 40.09 -184.42 72.17 -90.88 53.46 -32.07 29.4 -101.56 144.33 -88.2 93.54 -10.69 21.39 -18.71 50.78 -26.73 45.44 -29.4 34.75 -72.17 58.8 -16.04 16.04 -18.71 53.46 -16.04 18.71 -200.46 88.2 -26.73 16.04 -8.02 8.02 -8.02 8.02 -5.34 8.02 -10.69 5.34 -13.36 2.68 -42.76 0 -56.13 8.02 -29.4 10.69 -10.69 2.68 -40.09 21.39 -58.8 24.05 -40.09 16.04 -5.34 5.34 -114.93 85.53 -2.68 0 -5.34 0 -5.34 2.68 -8.02 2.68 -10.69 2.68 -10.69 8.02 -5.34 2.68 -93.54 8.02 -37.42 10.69 -18.71 2.68 -197.78 -24.05 -24.05 2.68 -74.83 40.09 -26.73 8.02 -21.39 2.68 -197.78 -37.42 -96.22 0 -2.68 0 -2.68 0 -61.47 2.68 -64.15 -18.71 -45.44 -5.34 -96.22 16.04 -24.05 -491.79 2.68 -24.05 10.69 -42.76 10.69 -48.11 2.68 -48.11 0 -40.09 -2.68 -40.09 -37.42 -197.78 -8.02 -96.22 -2.68 -125.62 -5.34 -155.02 -157.69 -483.78 -66.82 -136.31 -8.02 -24.05 -2.68 -18.71 0 -32.07 32.07 -152.35 40.09 -29.4 10.69 -18.71 10.69 -32.07 21.39 -171.05 10.69 -42.76 16.04 -18.71 18.71 -8.02 56.13 -5.34 267.27 -34.75 74.83 -45.44 34.75 -66.82 24.05 -37.42 26.73 -21.39 13.36 -5.34 13.36 -2.68 29.4 2.68 16.04 -5.34 5.34 -13.36 0 -21.39 -16.04 -58.8 -56.13 -347.46 -13.36 -219.17 2.68 -82.86 18.71 -109.58 42.76 -128.29 -0.13 -0.01 0.14 -0.08c0,0 185.53,-104.6 268.83,-177.49 83.3,-72.88 185.52,-212.69 185.52,-212.69l0.01 -0.03 -24.03 -64.11 24.05 64.15 16.04 24.05 21.39 18.71 112.26 80.19 74.83 8.02 187.1 -18.71 34.75 -13.36 34.75 -21.39 120.27 -98.9 5.34 -10.69 24.05 -53.46 29.4 -101.56 2.68 -18.71 -2.68 -21.39 -18.71 -101.56 0 -32.07 8.02 -13.36 32.07 -5.34 42.76 2.68 18.71 10.69 21.39 21.39 21.39 42.76 42.76 66.82 122.95 128.29 16.04 21.39 13.36 32.07 21.39 66.82 24.05 40.09 64.15 64.15 157.69 98.9 50.78 18.71 42.76 0 50.78 -34.75 144.33 -133.64 -0.01 -0.11z"/>
   <path id="MN063" class="gobi_bus gobisumber" d="M15757.24 7159.18l-29.26 -2.67 -101.56 37.42 -21.39 -10.69 -21.39 -21.39 -26.73 -50.78 -10.69 -13.36 -8.02 -16.04 -8.02 -37.42 2.68 -32.07 21.39 -163.04 2.68 -72.17 -2.68 -24.05 -8.02 -32.07 -18.71 -53.46 -26.73 -45.44 -120.27 -128.29 -13.36 -18.71 -2.68 -16.04 8.02 -16.04 16.04 -21.39 72.17 -61.47 8.02 -10.69 -37.42 -5.34 -50.78 0 -32.07 -8.02 -24.05 -8.02 -21.39 -21.39 -16.04 -21.39 -10.69 -48.11 34.75 -18.71 37.42 -10.69 48.11 -10.69 66.82 0 114.93 21.39 93.54 13.36 120.27 -58.8 53.46 -29.4 26.73 -26.73 10.69 -13.36 50.78 -128.28 93.54 42.76 13.36 42.75 2.68 16.04 2.68 24.05 -2.68 77.51 0 8.02 8.02 8.02 8.02 -2.68 5.34 -2.68 26.73 -40.09 13.36 -13.36 13.36 -8.02 13.36 5.34 10.69 16.04 8.02 29.4 2.68 32.07 2.68 29.4 -2.68 21.39 -5.34 29.4 -13.36 34.75 -56.13 106.91 -8.02 21.39 -5.34 24.05 0 13.36 0 21.39 0 10.69 5.34 18.71 5.34 8.02 24.05 50.78 69.49 69.49 18.71 34.75 24.03 64.11 -0.01 0.03c0,0 -102.22,139.81 -185.52,212.69 -83.3,72.88 -268.83,177.49 -268.83,177.49l-0.14 0.08z"/>
   <path id="MN059" class="gobi_bus dundgobi" d="M15276.3,6236.96 15286.98,6285.07 15303.03,6306.46 15324.41,6327.84 15348.46,6335.86 15380.54,6343.88 15431.32,6343.88 15468.74,6349.23 15460.71,6359.92 15388.55,6421.39 15372.51,6442.77 15364.48,6458.81 15367.16,6474.85 15380.53,6493.56 15500.8,6621.86 15527.53,6667.29 15546.24,6720.75 15554.26,6752.83 15556.93,6776.88 15554.26,6849.05 15532.87,7012.09 15530.19,7044.16 15538.22,7081.58 15546.24,7097.62 15556.92,7110.99 15583.65,7161.77 15605.04,7183.15 15626.42,7193.84 15727.99,7156.42 15757.38,7159.1 15714.62,7287.39 15695.92,7396.98 15693.24,7479.83 15706.6,7699 15762.73,8046.46 15778.77,8105.27 15778.77,8126.65 15773.43,8140.02 15757.38,8145.36 15727.99,8142.68 15714.62,8145.36 15701.26,8150.7 15674.53,8172.09 15650.48,8209.51 15615.73,8276.33 15540.89,8321.77 15273.62,8356.52 15217.49,8361.86 15198.79,8369.88 15182.74,8388.59 15172.06,8431.35 15150.67,8602.41 15139.98,8634.48 15129.29,8653.19 15089.2,8682.58 14966.25,8722.68 14891.42,8733.37 14875.38,8730.69 14821.92,8703.96 14787.17,8698.62 14765.78,8698.62 14332.79,8848.29 14279.33,8877.69 14212.51,8931.15 14156.38,8955.2 14121.63,8965.89 14054.81,8976.58 13819.61,9013.99 13795.55,9008.65 13736.75,8984.6 13680.62,8949.85 13619.16,8899.07 13605.79,8877.68 13595.1,8850.95 13595.1,8829.57 13595.1,8808.18 13584.42,8781.45 13563.03,8738.69 13514.91,8669.2 13418.7,8492.79 13402.65,8482.1 13357.22,8471.42 13143.39,8450.03 12833.35,8415.28 12496.57,8361.82 12440.45,8343.11 12421.74,8327.07 12403.03,8305.69 12373.63,8241.54 12370.96,8230.85 12373.63,8222.83 12376.31,8209.47 12378.99,8185.41 12378.99,8172.05 12378.99,8164.03 12376.31,8156.01 12373.63,8142.64 12373.63,8137.3 12373.63,8129.28 12373.63,8123.93 12373.63,8115.91 12381.65,8102.55 12384.33,8094.53 12384.33,8089.18 12384.33,8083.84 12381.65,8041.08 12381.65,8027.71 12384.33,8006.33 12384.33,8000.98 12384.33,7995.64 12378.99,7987.62 12362.95,7966.23 12114.38,7960.89 12114.38,7891.4 12119.72,7867.35 12127.74,7845.96 12146.45,7805.87 12135.77,7776.47 12055.58,7698.96 12023.5,7656.2 12010.14,7629.47 11999.45,7608.09 11996.77,7581.36 11991.43,7554.63 11991.43,7533.24 11996.77,7514.53 12004.8,7495.82 12034.19,7453.06 12076.95,7412.97 12092.99,7399.6 12111.7,7391.58 12162.48,7383.56 12333.54,7362.18 12368.29,7300.71 12373.63,7225.87 12405.71,7065.51 12408.38,7052.14 12413.73,6974.63 12416.4,6963.94 12424.42,6950.58 12437.79,6945.23 12459.17,6937.21 12555.39,6929.19 12603.51,6910.48 12619.55,6891.78 12630.24,6870.39 12640.93,6846.34 12686.36,6790.21 12691.71,6763.48 12694.39,6712.7 12699.73,6685.97 12705.07,6669.93 12745.17,6627.17 12763.88,6653.9 12779.92,6669.94 12881.48,6581.74 12924.24,6552.35 12950.97,6525.62 13017.79,6440.08 13087.29,6466.81 13162.12,6490.87 13212.9,6509.57 13258.34,6536.3 13277.05,6552.35 13306.44,6573.73 13343.86,6605.8 13402.66,6496.22 13458.79,6421.39 13474.83,6402.68 13541.65,6309.13 13571.05,6295.77 13621.83,6285.08 13648.56,6282.4 13667.27,6285.08 13675.29,6287.76 13688.66,6298.45 13736.77,6343.88 13771.52,6367.94 13798.25,6378.62 13878.44,6402.68 13894.48,6413.36 13907.84,6426.73 13913.19,6434.75 13921.21,6456.14 14065.54,6458.81 14209.88,6458.81 14276.7,6458.81 14327.48,6458.81 14402.32,6474.85 14429.05,6482.88 14477.16,6509.6 14506.56,6539 14552,6584.44 14584.07,6613.83 14629.51,6645.91 14690.98,6637.89 14811.25,6632.54 14829.96,6629.87 14867.38,6619.18 14944.89,6589.78 14958.25,6579.09 14968.94,6568.41 15009.03,6509.6 15014.38,6504.26 15030.42,6493.57 15065.17,6480.21 15129.31,6472.19 15148.02,6466.84 15156.04,6461.5 15169.41,6448.14 15174.75,6440.11 15182.77,6421.41 15185.45,6405.36 15190.79,6338.54 15196.14,6295.78 15201.48,6253.02 15276.32,6236.98z"/>
   <path id="MN055" class="hangai_bus uvurhangai" d="M10590.94,9163.63 10467.99,8666.49 10446.6,8605.02 10411.85,8527.51 10401.16,8500.78 10398.49,8482.07 10398.49,8466.03 10401.16,8455.34 10430.56,8380.51 10451.95,8321.71 10435.9,8292.31 10366.41,8249.55 10337.02,8222.82 10288.9,8193.42 10195.36,8164.03 10176.65,8150.66 10160.61,8134.62 10152.59,8113.24 10144.57,8089.18 10133.88,8041.07 10128.54,8000.97 10120.52,7886.05 10115.17,7870 10112.49,7853.96 10115.17,7821.89 10115.17,7797.84 10104.48,7741.71 10104.48,7720.33 10109.83,7704.28 10117.85,7690.92 10160.61,7648.16 10195.36,7600.04 10222.09,7530.55 10224.77,7503.82 10222.09,7447.7 10254.16,7332.77 10256.84,7290.01 10254.16,7252.59 10243.47,7196.47 10240.8,7102.92 10246.14,7076.19 10256.83,7052.14 10267.52,7028.09 10280.88,7009.38 10296.92,6996.02 10337.02,6979.97 10361.07,6969.29 10379.78,6953.25 10393.14,6934.54 10398.49,6921.17 10403.83,6899.79 10403.83,6857.03 10398.49,6800.9 10390.47,6774.17 10379.78,6755.46 10369.09,6744.77 10361.07,6726.07 10374.43,6696.67 10441.26,6611.14 10443.94,6589.75 10441.26,6573.71 10430.57,6560.35 10425.23,6541.64 10419.88,6522.93 10414.54,6434.73 10342.37,6343.85 10256.84,6258.32 10248.82,6244.96 10219.42,6188.83 10625.69,6097.96 10660.44,6073.9 10681.82,6049.86 10735.28,6009.77 10892.97,5964.33 10981.17,5926.91 11002.55,5926.91 11021.26,5932.26 11039.97,5950.96 11069.37,5999.08 11085.41,6015.12 11104.12,6028.49 11122.83,6033.83 11162.92,6017.79 11176.29,5956.32 11178.96,5900.19 11186.98,5878.81 11195,5862.77 11253.81,5822.67 11283.2,5771.89 11328.64,5670.33 11331.32,5635.58 11320.63,5627.56 11301.92,5619.53 11288.56,5611.51 11275.19,5595.47 11264.5,5579.43 11256.48,5558.04 11253.81,5533.99 11261.83,5517.95 11272.52,5507.26 11293.9,5509.94 11301.92,5512.62 11363.39,5547.37 11406.15,5547.37 11424.86,5550.04 11555.83,5598.16 11577.22,5619.54 11593.26,5646.27 11633.35,5734.47 11649.39,5747.84 11678.79,5758.53 11812.43,5774.57 11930.03,5769.22 11964.78,5761.2 12044.97,5710.42 12098.43,5697.06 12125.16,5694.38 12143.87,5697.06 12170.6,5699.73 12186.64,5702.41 12250.78,5694.39 12344.33,5673 12400.45,5656.96 12397.78,5694.38 12400.45,5723.77 12411.14,5787.92 12424.51,5822.67 12432.53,5836.04 12459.26,5868.11 12507.37,5910.87 12536.77,5942.94 12544.79,5956.31 12550.13,5972.35 12555.48,5991.06 12558.15,6015.11 12555.48,6044.51 12550.13,6092.61 12528.75,6095.29 12515.38,6100.63 12496.67,6116.67 12464.6,6151.42 12494,6188.84 12518.05,6223.59 12531.41,6242.3 12547.45,6277.05 12568.84,6306.45 12576.86,6327.83 12582.2,6349.22 12584.88,6367.93 12584.88,6472.17 12587.56,6490.88 12595.58,6506.92 12600.92,6517.61 12614.29,6528.29 12710.51,6595.12 12745.26,6627.19 12705.16,6669.95 12699.82,6685.99 12694.48,6712.72 12691.8,6763.5 12686.46,6790.23 12641.02,6846.36 12630.33,6870.41 12619.64,6891.8 12603.6,6910.5 12555.49,6929.21 12459.27,6937.23 12437.88,6945.26 12424.52,6950.6 12416.49,6963.96 12413.82,6974.65 12408.47,7052.16 12405.8,7065.53 12373.72,7225.89 12368.38,7300.73 12333.63,7362.2 12162.58,7383.58 12111.79,7391.6 12093.09,7399.62 12077.04,7412.99 12034.28,7453.08 12004.89,7495.84 11996.87,7514.55 11991.52,7533.26 11991.52,7554.65 11996.87,7581.38 11999.54,7608.11 12010.23,7629.49 12023.6,7656.22 12055.67,7698.98 12135.86,7776.49 12146.54,7805.89 12127.84,7845.98 12119.81,7867.37 12114.47,7891.42 12114.47,7960.91 12111.79,7979.62 12103.77,7998.33 12050.31,8099.89 12034.27,8123.94 12012.89,8148 11884.59,8246.89 11726.91,8332.43 11705.52,8372.52 11574.55,8655.83 11563.86,8690.58 11550.5,8741.37 11537.13,8770.76 11526.44,8789.47 11489.03,8821.54 11481.01,8850.94 11481.01,8885.69 11526.44,9013.98 11534.47,9043.38 11531.79,9059.42 11251.15,9038.04 10871.62,9067.43 10649.78,9136.92 10590.98,9163.65z"/>
   <path id="MN039" class="zuun_bus hentii" d="M18427.48,3222.08 18427.48,3224.76 18483.61,3304.95 18486.29,3312.97 18486.29,3318.31 18483.61,3326.33 18478.27,3337.02 18464.9,3347.71 18462.22,3353.05 18459.55,3358.4 18462.22,3411.86 18486.28,3566.88 18515.67,3652.41 18518.35,3684.48 18518.35,3705.87 18499.64,3761.99 18491.62,3788.72 18504.99,3828.82 18534.38,3898.31 18681.38,4173.6 18726.82,4288.53 18740.19,4333.97 18748.21,4398.11 18748.21,4464.94 18729.5,4513.05 18718.81,4590.56 18737.52,4783 18777.61,4860.51 18785.63,4876.56 18817.71,4943.38 18849.78,5085.04 18796.32,5093.06 18790.98,5095.74 18772.27,5109.1 18761.58,5111.78 18721.49,5117.12 18488.95,5205.32 18446.19,5234.72 18430.15,5250.76 18416.79,5266.8 18406.1,5282.84 18398.08,5298.88 18392.73,5314.92 18387.39,5333.63 18384.71,5355.02 18379.37,5411.14 18379.37,5445.89 18384.71,5496.68 18398.08,5563.5 18309.88,5558.16 18213.66,5539.45 18197.62,5539.45 18186.93,5542.12 18154.87,5555.49 18120.12,5576.87 18098.73,5598.26 18021.22,5686.46 17994.49,5731.9 17983.8,5761.29 17975.78,5793.37 17949.05,5999.17 17930.34,6076.67 17876.89,6180.91 17807.39,6303.86 17788.69,6343.96 17778,6386.72 17775.32,6472.25 17775.32,6496.3 17783.34,6531.05 17807.39,6613.91 17812.74,6637.96 17815.42,6659.34 17810.07,6680.73 17804.73,6699.44 17756.61,6768.93 17748.59,6787.64 17745.92,6801 17748.59,6835.75 17604.26,6969.39 17553.48,7004.14 17510.71,7004.14 17459.93,6985.43 17302.24,6886.53 17238.1,6822.39 17214.05,6782.29 17192.66,6715.47 17179.29,6683.4 17163.25,6662.01 17040.3,6533.72 16997.54,6466.89 16976.16,6424.13 16954.77,6402.75 16936.06,6392.06 16893.3,6389.38 16861.23,6394.73 16853.21,6408.09 16853.21,6440.16 16871.92,6541.73 16874.59,6563.11 16871.92,6581.82 16842.52,6683.39 16818.47,6736.84 16813.12,6747.53 16692.85,6846.43 16658.1,6867.81 16623.35,6881.18 16436.26,6899.89 16361.42,6891.87 16249.16,6811.68 16227.78,6792.97 16211.73,6768.92 16187.68,6704.77 16168.97,6670.02 16099.48,6600.53 16075.43,6549.75 16070.09,6541.73 16064.74,6523.02 16064.74,6512.33 16064.74,6490.95 16064.74,6477.58 16070.09,6453.53 16078.11,6432.14 16134.23,6325.24 16147.6,6290.49 16152.94,6261.09 16155.62,6239.7 16152.94,6210.31 16150.26,6178.23 16142.24,6148.84 16131.56,6132.8 16118.19,6127.45 16104.83,6135.47 16091.46,6148.84 16064.73,6188.93 16059.39,6191.61 16051.37,6194.29 16043.35,6186.27 16043.35,6178.25 16046.02,6100.73 16043.35,6076.68 16040.67,6060.64 16027.3,6017.89 15933.76,5975.13 15882.98,5935.03 15858.93,5910.98 15832.2,5878.91 15824.18,5857.52 15810.81,5814.76 15781.42,5726.56 15770.73,5713.2 15746.68,5686.47 15738.66,5673.1 15722.61,5608.96 15722.61,5598.27 15717.27,5590.25 15671.83,5539.47 15663.81,5531.45 15655.79,5510.06 15642.43,5459.28 15637.08,5451.26 15629.06,5445.91 15621.04,5440.57 15613.02,5435.23 15607.68,5421.86 15613.02,5403.15 15623.71,5387.11 15631.73,5368.4 15634.41,5341.67 15629.06,5328.31 15621.04,5312.27 15618.36,5298.9 15621.04,5288.22 15629.06,5280.19 15634.41,5274.85 15642.43,5266.83 15669.16,5213.37 15674.5,5194.66 15677.18,5183.97 15677.18,5157.25 15677.18,5151.9 15682.52,5141.21 15677.18,5133.19 15669.16,5125.17 15663.81,5114.48 15666.49,5077.07 15663.81,5063.7 15655.79,5018.26 15658.47,5004.9 15671.83,4983.51 15674.51,4967.47 15725.29,4956.79 15762.71,4946.1 15781.42,4938.08 15813.49,4919.37 15826.85,4908.68 15858.93,4879.28 15904.37,4833.85 15931.1,4809.79 15941.78,4801.77 15968.51,4788.41 15976.53,4783.06 15987.22,4772.38 15997.91,4745.65 16008.6,4692.19 16024.64,4646.75 16040.68,4620.02 16054.04,4606.66 16064.73,4598.64 16078.1,4571.91 16091.46,4534.49 16094.14,4505.09 16091.46,4478.36 16078.1,4411.54 16056.71,4355.41 16046.02,4309.98 16027.32,4243.15 16003.26,4109.52 15989.9,4072.1 15973.86,4034.68 15968.51,4015.97 15960.49,3959.85 15955.15,3941.14 15925.75,3887.68 15893.68,3807.49 15866.95,3759.38 15837.55,3727.3 15792.11,3681.87 15776.07,3665.82 15760.03,3652.46 15746.67,3633.75 15725.28,3617.71 15703.9,3588.31 15714.58,3468.04 15738.64,3353.11 15768.03,3355.79 15877.62,3334.4 15957.8,3337.08 16011.26,3326.39 16088.77,3350.45 16107.48,3350.45 16184.99,3329.06 16281.21,3339.75 16299.92,3345.09 16318.63,3355.78 16358.73,3371.82 16374.77,3379.84 16404.16,3377.17 16414.85,3382.51 16417.53,3390.53 16420.2,3409.24 16422.88,3419.93 16436.25,3425.27 16454.95,3433.29 16615.32,3422.6 16658.08,3438.65 16682.13,3468.04 16692.82,3468.04 16754.29,3484.08 16957.42,3542.89 16989.49,3540.21 17021.57,3526.84 17053.64,3502.79 17080.37,3476.06 17093.73,3460.02 17099.08,3452 17109.76,3452 17147.18,3494.76 17160.55,3505.45 17203.31,3516.14 17275.47,3561.57 17307.55,3572.26 17339.62,3574.94 17371.69,3572.26 17454.55,3542.87 17548.09,3489.41 17679.06,3393.19 17780.63,3355.77 17796.67,3347.75 17818.05,3318.35 17831.42,3307.67 17850.13,3304.99 17866.17,3310.33 17900.92,3329.04 17919.63,3334.38 17938.33,3334.38 17954.38,3329.04 18039.91,3283.6 18074.66,3272.91 18352.62,3254.21 18427.45,3222.13z"/>
   <path id="MN051" class="zuun_bus suh_baatar" d="M18849.78,5085 18857.8,5186.56 18849.78,5320.2 18978.07,5250.71 19004.8,5242.69 19026.19,5240.01 19047.57,5240.01 19087.67,5248.03 19234.67,5317.52 19691.72,5419.08 20036.5,5697.06 20170.14,5769.22 20186.18,5782.59 20196.87,5795.95 20202.21,5825.35 20178.16,6028.48 20175.48,6116.66 20178.16,6146.06 20186.18,6167.45 20194.2,6183.49 20207.56,6194.18 20220.93,6202.2 20303.78,6236.95 20327.84,6250.31 20349.22,6266.35 20373.27,6287.74 20394.66,6311.79 20440.1,6378.61 20530.97,6547 20659.27,6482.85 20726.09,6464.15 21073.55,6450.78 21215.21,6421.39 21535.94,6405.34 21551.98,6410.69 21562.67,6421.38 21573.36,6434.74 21728.38,6685.98 21792.53,6760.82 21781.84,6768.84 21765.8,6803.59 21765.8,6806.26 21731.05,6857.05 21728.37,6859.72 21621.46,6969.31 21514.56,7185.8 21509.21,7215.2 21519.9,7247.27 21535.94,7274 21541.29,7298.05 21525.24,7335.47 21479.81,7399.61 21461.1,7415.66 21431.7,7431.7 21410.32,7434.37 21394.27,7434.37 21388.93,7437.05 21362.2,7434.37 21354.18,7437.05 21338.14,7453.09 21311.41,7477.15 21306.06,7482.49 21177.77,7594.75 21124.31,7656.22 21108.27,7669.58 20902.47,7731.05 20851.69,7739.08 20774.17,7739.08 20760.81,7739.08 20758.13,7739.08 20715.37,7741.75 20712.69,7739.08 20683.3,7741.75 20645.88,7744.43 20611.13,7752.45 20597.77,7755.13 20579.06,7755.13 20563.02,7760.47 20538.96,7760.47 20525.6,7757.79 20397.31,7707.01 20394.63,7707.01 20383.94,7698.99 20370.58,7701.67 20362.56,7707.01 20346.51,7709.69 20287.71,7733.74 20269,7733.74 20255.64,7744.43 20244.95,7749.77 20236.93,7755.12 20234.25,7765.8 20228.91,7813.92 20220.89,7837.97 20199.5,7886.09 20156.74,7947.56 20001.72,8097.23 19964.3,8121.29 19953.61,8131.97 19945.59,8142.66 19932.23,8169.39 19908.18,8204.14 19884.12,8225.53 19870.76,8233.55 19857.39,8233.55 19838.69,8244.24 19819.98,8249.58 19777.22,8252.26 19758.51,8260.28 19750.49,8268.3 19747.81,8270.98 19742.47,8276.32 19718.41,8303.05 19710.39,8311.07 19686.34,8319.09 19656.94,8332.46 19648.92,8340.48 19619.53,8377.89 19552.7,8436.7 19509.94,8426.01 19483.21,8426.01 19469.85,8426.01 19456.48,8412.64 19443.12,8407.3 19314.83,8396.61 19304.14,8393.93 19280.09,8393.93 19165.16,8383.25 19098.34,8353.85 19066.26,8353.85 18895.21,8305.74 18793.64,8260.3 18772.26,8244.26 18756.22,8222.87 18726.82,8169.41 18665.35,8107.94 18641.3,8091.9 18617.25,8086.56 18411.44,8091.9 18339.28,8070.52 18328.59,8070.52 18317.9,8067.84 18317.9,8065.16 18315.22,8003.69 18315.22,7955.58 18317.9,7902.12 18315.22,7878.07 18309.88,7859.36 18288.49,7832.63 18272.45,7819.26 18253.74,7805.9 18237.7,7789.86 18221.66,7768.47 18213.64,7701.65 18205.62,7674.92 18181.57,7650.87 18160.19,7640.18 18149.5,7626.81 18144.16,7618.79 18144.16,7584.04 18157.52,7298.06 18146.84,7241.94 18130.79,7191.15 18063.97,7044.15 18050.61,6998.71 18042.59,6980.01 18029.22,6963.96 17748.58,6835.67 17745.91,6800.92 17748.58,6787.56 17756.6,6768.85 17804.72,6699.36 17810.06,6680.65 17815.41,6659.26 17812.73,6637.88 17807.38,6613.82 17783.33,6530.97 17775.31,6496.22 17775.31,6472.17 17777.99,6386.64 17788.68,6343.87 17807.38,6303.78 17876.88,6180.83 17930.33,6076.59 17949.04,5999.09 17975.77,5793.29 17983.79,5761.21 17994.48,5731.82 18021.21,5686.38 18098.72,5598.18 18120.11,5576.79 18154.86,5555.41 18186.92,5542.04 18197.61,5539.37 18213.65,5539.37 18309.87,5558.07 18398.07,5563.42 18384.7,5496.6 18379.36,5445.81 18379.36,5411.06 18384.7,5354.94 18387.38,5333.55 18392.72,5314.84 18398.07,5298.8 18406.09,5282.76 18416.78,5266.72 18430.14,5250.68 18446.18,5234.64 18488.94,5205.24 18721.48,5117.04 18761.57,5111.7 18772.26,5109.02 18790.97,5095.65 18796.31,5092.98 18849.77,5084.96z"/>
   <path id="MN061" class="zuun_bus dornod" d="M21792.51,6760.82 21728.36,6685.98 21573.34,6434.74 21562.65,6421.38 21551.96,6410.69 21535.92,6405.34 21215.19,6421.39 21073.53,6450.78 20726.07,6464.15 20659.25,6482.85 20530.95,6547 20440.08,6378.61 20394.64,6311.79 20373.25,6287.74 20349.2,6266.35 20327.82,6250.31 20303.76,6236.95 20220.91,6202.2 20207.54,6194.18 20194.18,6183.49 20186.16,6167.45 20178.14,6146.06 20175.46,6116.66 20178.14,6028.48 20202.19,5825.35 20196.85,5795.95 20186.16,5782.59 20170.12,5769.22 20036.48,5697.06 19691.7,5419.08 19234.65,5317.52 19087.65,5248.03 19047.55,5240.01 19026.17,5240.01 19004.78,5242.69 18978.05,5250.71 18849.76,5320.2 18857.78,5186.56 18849.76,5085 18817.69,4943.34 18785.61,4876.52 18777.59,4860.47 18737.5,4782.96 18718.79,4590.52 18729.48,4513.01 18748.19,4464.9 18748.19,4398.07 18740.17,4333.93 18726.8,4288.49 18681.36,4173.56 18534.36,3898.27 18504.97,3828.78 18491.6,3788.68 18499.62,3761.95 18518.33,3705.83 18518.33,3684.44 18515.65,3652.37 18486.26,3566.84 18462.2,3411.81 18459.53,3358.36 18462.2,3353.01 18464.88,3347.67 18478.25,3336.98 18483.59,3326.29 18486.27,3318.27 18486.27,3312.93 18483.59,3304.91 18427.46,3224.72 18427.46,3222.04 18657.32,3117.8 18689.39,3112.46 18772.25,3120.48 18839.07,3155.23 18860.46,3160.57 18884.51,3160.57 18916.58,3149.88 18986.07,3115.13 19031.51,3075.04 19047.55,3061.68 19063.59,3053.66 19079.64,3050.98 19119.73,3048.3 19133.1,3040.28 19141.12,3013.55 19141.12,2973.46 19143.79,2954.75 19151.81,2933.36 19205.27,2826.46 19223.98,2799.73 19245.37,2775.67 19400.39,2658.07 19419.1,2628.67 19432.46,2617.98 19472.56,2588.59 19485.92,2575.22 19523.34,2543.15 19654.31,2473.66 19670.35,2470.98 19702.42,2476.33 19718.46,2476.33 19729.15,2470.98 19820.03,2377.44 19836.07,2366.75 19868.14,2358.73 19884.18,2350.71 19929.62,2302.6 19993.77,2265.18 20057.92,2241.13 20092.67,2246.47 20162.16,2281.22 20199.57,2291.91 20338.55,2270.52 20410.72,2289.23 20595.14,2396.14 20608.5,2409.5 20619.19,2425.54 20635.23,2460.3 20645.92,2476.34 20755.51,2599.29 20875.78,2690.16 20889.14,2695.51 20937.26,2692.83 20953.3,2698.17 20980.03,2700.85 21033.49,2690.16 21113.68,2708.87 21137.73,2708.87 21164.46,2700.85 21391.65,2567.21 21455.79,2548.5 21517.26,2551.18 21578.73,2575.23 21787.21,2658.09 21819.29,2687.48 21846.02,2727.58 21870.07,2773.02 21709.7,3131.17 21699.02,3160.56 21538.65,3521.39 21380.96,3879.54 21378.28,3898.25 21388.97,3938.34 21388.97,3959.73 21375.61,3994.48 21188.51,4285.81 21191.19,4315.21 21191.19,4333.92 21207.23,4558.43 21204.55,4582.48 21094.97,4651.97 21092.29,4654.65 21062.89,4673.36 21001.42,4700.09 20985.38,4721.47 20985.38,4732.16 20996.07,4804.33 20996.07,4809.67 21020.12,4954.01 21028.14,4959.35 21030.82,4972.72 21049.53,4996.77 21241.97,5202.57 21287.41,5226.62 21332.84,5197.23 21415.7,5087.64 21490.53,5039.53 21535.97,5023.49 21674.95,5055.56 21728.41,5055.56 21920.85,5012.8 21974.31,5010.12 21995.69,5012.8 22086.57,5052.89 22142.7,5074.28 22161.41,5084.97 22345.82,5258.7 22380.57,5261.37 22409.97,5223.96 22423.33,5199.91 22428.68,5194.56 22452.73,5154.47 22466.1,5143.78 22506.19,5109.03 22666.56,4895.2 22687.94,4876.5 22722.69,4863.13 22842.96,4871.15 22861.67,4871.15 22912.45,4847.1 22955.22,4839.08 23000.65,4839.08 23019.36,4844.42 23054.11,4865.81 23075.5,4871.15 23219.83,4881.84 23273.29,4908.57 23321.41,4967.37 23401.59,5101.01 23441.69,5143.77 23596.71,5213.26 23663.53,5237.31 23682.24,5250.68 23692.93,5266.72 23698.27,5288.1 23706.29,5368.29 23711.64,5387 23719.66,5400.37 23727.68,5405.71 23727.68,5408.39 23735.7,5411.06 23738.38,5411.06 23807.87,5440.46 23837.26,5448.48 23853.31,5459.17 23858.65,5475.21 23853.31,5485.9 23837.26,5509.95 23831.92,5525.99 23861.32,5536.68 23978.92,5643.59 23989.61,5656.95 24000.3,5678.34 24005.64,5697.05 24016.33,5710.41 24035.04,5715.75 24037.71,5721.1 24048.4,5718.42 24061.77,5723.76 24093.84,5747.82 24147.3,5811.96 24168.68,5844.04 24187.39,5884.13 24192.74,5905.52 24192.74,5969.66 24195.41,5983.03 24198.09,5991.05 24200.77,5996.39 24211.46,6012.43 24235.51,6039.16 24246.2,6052.53 24251.54,6060.54 24251.54,6071.23 24256.88,6079.25 24262.23,6087.27 24270.25,6089.95 24283.61,6089.95 24291.63,6092.62 24294.31,6100.64 24291.63,6111.33 24286.29,6119.35 24283.61,6127.37 24283.61,6143.41 24286.29,6148.76 24288.97,6151.43 24291.64,6156.78 24296.99,6156.78 24299.66,6162.12 24299.66,6167.47 24296.99,6175.49 24296.99,6183.51 24296.99,6207.56 24286.3,6242.31 24286.3,6261.02 24288.98,6271.71 24299.66,6290.42 24302.34,6298.44 24302.34,6309.12 24297,6317.14 24291.65,6325.17 24286.31,6333.19 24283.63,6335.86 24278.29,6349.23 24267.6,6359.92 24248.89,6351.9 24222.16,6349.22 24216.82,6365.26 24211.48,6373.28 24198.11,6391.99 24192.77,6397.33 24174.06,6408.02 24163.37,6413.36 24141.99,6434.75 24139.31,6437.43 24131.29,6437.43 24115.25,6434.75 24088.52,6410.7 24072.48,6408.02 24053.77,6408.02 23997.64,6397.33 23960.22,6400.01 23893.4,6416.05 23858.65,6416.05 23666.21,6362.59 23647.5,6354.57 23628.79,6338.53 23607.41,6293.09 23594.04,6274.38 23578,6279.73 23559.29,6301.11 23548.61,6309.13 23535.24,6303.79 23527.22,6290.43 23524.54,6271.72 23519.2,6255.68 23503.16,6247.65 23479.1,6255.68 23460.4,6277.06 23452.38,6293.1 23447.03,6298.45 23447.03,6301.12 23436.34,6322.51 23420.3,6325.19 23417.63,6322.51 23414.95,6341.22 23406.93,6343.89 23380.2,6338.55 23350.8,6322.51 23324.07,6311.82 23313.38,6317.17 23292,6330.53 23278.63,6335.87 23219.83,6335.87 23190.44,6327.85 23142.32,6303.8 23115.59,6295.78 23091.54,6293.1 23067.49,6293.1 23043.43,6301.12 23019.38,6317.17 22989.99,6343.89 22979.3,6346.57 22939.2,6349.25 22925.84,6354.59 22867.04,6400.03 22842.98,6402.71 22805.57,6413.39 22786.86,6421.42 22770.82,6432.1 22762.8,6445.47 22757.45,6445.47 22741.41,6469.52 22725.37,6482.89 22722.69,6482.89 22720.01,6485.56 22720.01,6512.29 22709.33,6517.64 22669.23,6522.98 22666.56,6520.3 22663.88,6522.98 22634.48,6525.66 22615.77,6522.98 22583.7,6501.59 22578.36,6496.25 22570.34,6474.86 22556.97,6456.16 22554.29,6453.48 22546.27,6437.44 22535.59,6426.75 22527.57,6426.75 22495.49,6450.8 22482.13,6453.48 22479.45,6453.48 22466.09,6445.46 22404.62,6461.5 22417.98,6496.25 22417.98,6512.29 22412.64,6528.33 22385.91,6565.75 22377.89,6595.15 22375.21,6656.62 22356.5,6688.69 22356.5,6694.03 22327.1,6702.05 22075.86,6686.01 21979.64,6664.63 21966.28,6664.63 21960.93,6667.3 21944.89,6686.01 21896.78,6726.11 21886.09,6731.45 21840.65,6736.79 21808.58,6747.48 21792.54,6760.85z"/>
   <path id="MN1" class="ub_bus ub" d="M14463.78,4676.07 14493.17,4673.39 14554.64,4654.68 14629.48,4622.61 14648.19,4662.7 14664.23,4692.1 14704.32,4740.21 14749.76,4815.05 14771.15,4839.1 14792.53,4868.5 14805.9,4881.86 14819.26,4895.22 14837.97,4905.91 14856.68,4911.26 14904.79,4921.94 14952.91,4937.99 14974.29,4951.35 14984.98,4967.39 14990.32,4983.43 14990.32,5002.14 14971.62,5076.98 14963.59,5130.44 14942.21,5234.68 14939.53,5261.41 14899.44,5272.09 14864.69,5277.44 14808.56,5280.11 14763.12,5274.77 14741.74,5269.43 14723.03,5258.74 14664.23,5207.96 14637.5,5186.57 14608.1,5175.88 14578.71,5170.54 14519.9,5167.86 14501.19,5167.86 14413,5183.9 14300.73,5194.59 14274,5183.9 14209.86,5167.86 14193.82,5157.17 14185.8,5149.15 14180.45,5130.45 14175.11,5109.06 14175.11,5020.86 14164.42,4983.44 14153.73,4948.69 14143.05,4932.65 14124.34,4905.92 14116.32,4758.92 14094.93,4684.09 14081.57,4630.63 14068.2,4579.85 14244.61,4614.6 14241.93,4614.6 14319.44,4633.3 14383.59,4646.67 14402.3,4652.01 14447.74,4670.72z"/>
   <path id="MN064" class="ub_bus baganuur" d="M15674.54,4967.39 15671.86,4983.43 15658.5,5004.82 15655.82,5018.18 15663.84,5063.62 15666.52,5076.99 15663.84,5114.4 15669.19,5125.09 15677.21,5133.11 15682.55,5141.13 15677.21,5151.82 15677.21,5157.16 15677.21,5183.89 15674.53,5194.58 15669.19,5213.29 15642.46,5266.75 15634.44,5274.77 15629.09,5280.11 15621.07,5288.13 15618.39,5298.82 15621.07,5312.19 15629.09,5328.23 15634.44,5341.59 15631.76,5368.32 15538.22,5352.28 15522.17,5344.26 15506.13,5330.9 15482.08,5293.48 15474.06,5250.72 15460.69,5202.6 15458.02,5181.22 15460.69,5151.82 15471.38,5114.4 15487.42,5066.29 15498.11,5044.9 15522.16,5015.51 15575.62,4962.05 15674.52,4967.39z"/>
  </g>
 </g>
</svg>
